<svg width="134" height="14" viewBox="0 0 134 14" fill="none" xmlns="http://www.w3.org/2000/svg">
<path d="M6.534 6.606V7.614H4.302V10.044H3.168V7.614H0.936V6.606H3.168V4.176H4.302V6.606H6.534ZM12.3019 13.662C11.5459 13.662 10.8619 13.536 10.2499 13.284C9.63788 13.032 9.13988 12.684 8.75588 12.24C8.37188 11.796 8.13188 11.28 8.03588 10.692L8.79188 10.008C8.81588 10.416 8.97788 10.818 9.27788 11.214C9.57788 11.598 9.98588 11.91 10.5019 12.15C11.0299 12.39 11.6299 12.51 12.3019 12.51C12.9019 12.51 13.4419 12.408 13.9219 12.204C14.4139 11.988 14.7979 11.7 15.0739 11.34C15.3619 10.968 15.5059 10.536 15.5059 10.044C15.5059 9.516 15.3379 9.066 15.0019 8.694C14.6659 8.31 14.1919 8.016 13.5799 7.812C12.9679 7.608 12.2419 7.506 11.4019 7.506H10.7899V6.444H11.4019C12.5659 6.444 13.4839 6.252 14.1559 5.868C14.8279 5.484 15.1639 4.908 15.1639 4.14C15.1639 3.636 15.0259 3.198 14.7499 2.826C14.4859 2.454 14.1259 2.166 13.6699 1.962C13.2259 1.758 12.7399 1.656 12.2119 1.656C11.4199 1.656 10.7419 1.83 10.1779 2.178C9.61388 2.526 9.21788 2.958 8.98988 3.474L8.14388 2.646C8.37188 2.214 8.68988 1.842 9.09788 1.53C9.51788 1.218 9.99188 0.977999 10.5199 0.809999C11.0599 0.641999 11.6179 0.557999 12.1939 0.557999C13.0099 0.557999 13.7359 0.713999 14.3719 1.026C15.0199 1.338 15.5239 1.758 15.8839 2.286C16.2559 2.814 16.4419 3.42 16.4419 4.104C16.4419 4.584 16.3459 5.016 16.1539 5.4C15.9619 5.772 15.6799 6.09 15.3079 6.354C14.9359 6.606 14.4799 6.798 13.9399 6.93C14.5039 7.038 14.9959 7.248 15.4159 7.56C15.8479 7.872 16.1779 8.256 16.4059 8.712C16.6459 9.156 16.7659 9.648 16.7659 10.188C16.7659 10.908 16.5559 11.526 16.1359 12.042C15.7279 12.558 15.1879 12.96 14.5159 13.248C13.8439 13.524 13.1059 13.662 12.3019 13.662ZM24.4336 13.5V10.08H18.1516V8.982L24.8116 0.719999H25.6576V8.964H27.2416V10.08H25.6576V13.5H24.4336ZM19.4656 8.964H24.5416V2.628L19.4656 8.964ZM42.5815 9.288C42.5815 8.484 42.3835 7.758 41.9875 7.11C41.6035 6.45 41.0755 5.928 40.4035 5.544C39.7435 5.16 39.0055 4.968 38.1895 4.968C37.6495 4.968 37.1395 5.064 36.6595 5.256C36.1915 5.448 35.7835 5.718 35.4355 6.066C35.0875 6.414 34.8235 6.822 34.6435 7.29C34.6435 6.114 34.7875 5.112 35.0755 4.284C35.3755 3.456 35.7895 2.82 36.3175 2.376C36.8455 1.932 37.4635 1.71 38.1715 1.71C38.8435 1.71 39.4495 1.896 39.9895 2.268C40.5415 2.628 40.9435 3.114 41.1955 3.726L41.9875 3.006C41.6395 2.274 41.1295 1.698 40.4575 1.278C39.7855 0.845999 39.0235 0.629999 38.1715 0.629999C37.2355 0.629999 36.4135 0.911999 35.7055 1.476C34.9975 2.04 34.4455 2.892 34.0495 4.032C33.6535 5.16 33.4555 6.594 33.4555 8.334C33.4555 9.438 33.6535 10.392 34.0495 11.196C34.4455 12 34.9855 12.618 35.6695 13.05C36.3655 13.47 37.1575 13.68 38.0455 13.68C38.8975 13.68 39.6655 13.482 40.3495 13.086C41.0335 12.69 41.5735 12.162 41.9695 11.502C42.3775 10.83 42.5815 10.092 42.5815 9.288ZM38.0815 12.6C37.4695 12.6 36.9115 12.45 36.4075 12.15C35.9035 11.85 35.4955 11.448 35.1835 10.944C34.8835 10.44 34.7335 9.888 34.7335 9.288C34.7335 8.676 34.8835 8.124 35.1835 7.632C35.4835 7.128 35.8855 6.726 36.3895 6.426C36.9055 6.126 37.4695 5.976 38.0815 5.976C38.6815 5.976 39.2335 6.126 39.7375 6.426C40.2415 6.726 40.6435 7.128 40.9435 7.632C41.2555 8.136 41.4115 8.688 41.4115 9.288C41.4115 9.888 41.2555 10.44 40.9435 10.944C40.6435 11.448 40.2415 11.85 39.7375 12.15C39.2335 12.45 38.6815 12.6 38.0815 12.6ZM50.1152 13.5V10.08H43.8332V8.982L50.4932 0.719999H51.3392V8.964H52.9232V10.08H51.3392V13.5H50.1152ZM45.1472 8.964H50.2232V2.628L45.1472 8.964ZM60.7413 12.384V13.5H54.7833V12.384H57.2133V1.926C57.1053 2.07 56.9433 2.232 56.7273 2.412C56.5233 2.58 56.2833 2.748 56.0073 2.916C55.7313 3.072 55.4493 3.204 55.1613 3.312C54.8733 3.42 54.6093 3.474 54.3693 3.474V2.322C54.6933 2.322 55.0173 2.238 55.3413 2.07C55.6653 1.89 55.9653 1.692 56.2413 1.476C56.5293 1.248 56.7573 1.044 56.9253 0.864C57.1053 0.671999 57.2013 0.569999 57.2133 0.557999H58.4553V12.384H60.7413ZM70.8195 13.662C70.0635 13.662 69.3795 13.536 68.7675 13.284C68.1555 13.032 67.6575 12.684 67.2735 12.24C66.8895 11.796 66.6495 11.28 66.5535 10.692L67.3095 10.008C67.3335 10.416 67.4955 10.818 67.7955 11.214C68.0955 11.598 68.5035 11.91 69.0195 12.15C69.5475 12.39 70.1475 12.51 70.8195 12.51C71.4195 12.51 71.9595 12.408 72.4395 12.204C72.9315 11.988 73.3155 11.7 73.5915 11.34C73.8795 10.968 74.0235 10.536 74.0235 10.044C74.0235 9.516 73.8555 9.066 73.5195 8.694C73.1835 8.31 72.7095 8.016 72.0975 7.812C71.4855 7.608 70.7595 7.506 69.9195 7.506H69.3075V6.444H69.9195C71.0835 6.444 72.0015 6.252 72.6735 5.868C73.3455 5.484 73.6815 4.908 73.6815 4.14C73.6815 3.636 73.5435 3.198 73.2675 2.826C73.0035 2.454 72.6435 2.166 72.1875 1.962C71.7435 1.758 71.2575 1.656 70.7295 1.656C69.9375 1.656 69.2595 1.83 68.6955 2.178C68.1315 2.526 67.7355 2.958 67.5075 3.474L66.6615 2.646C66.8895 2.214 67.2075 1.842 67.6155 1.53C68.0355 1.218 68.5095 0.977999 69.0375 0.809999C69.5775 0.641999 70.1355 0.557999 70.7115 0.557999C71.5275 0.557999 72.2535 0.713999 72.8895 1.026C73.5375 1.338 74.0415 1.758 74.4015 2.286C74.7735 2.814 74.9595 3.42 74.9595 4.104C74.9595 4.584 74.8635 5.016 74.6715 5.4C74.4795 5.772 74.1975 6.09 73.8255 6.354C73.4535 6.606 72.9975 6.798 72.4575 6.93C73.0215 7.038 73.5135 7.248 73.9335 7.56C74.3655 7.872 74.6955 8.256 74.9235 8.712C75.1635 9.156 75.2835 9.648 75.2835 10.188C75.2835 10.908 75.0735 11.526 74.6535 12.042C74.2455 12.558 73.7055 12.96 73.0335 13.248C72.3615 13.524 71.6235 13.662 70.8195 13.662ZM81.0252 13.68C80.1132 13.68 79.2912 13.458 78.5592 13.014C77.8392 12.558 77.2932 11.958 76.9212 11.214L77.7492 10.602C78.0732 11.19 78.5292 11.664 79.1172 12.024C79.7052 12.384 80.3472 12.564 81.0432 12.564C81.6432 12.564 82.1772 12.432 82.6452 12.168C83.1252 11.904 83.5032 11.544 83.7792 11.088C84.0672 10.62 84.2112 10.08 84.2112 9.468C84.2112 8.88 84.0732 8.364 83.7972 7.92C83.5212 7.464 83.1552 7.11 82.6992 6.858C82.2432 6.594 81.7272 6.462 81.1512 6.462C80.5992 6.462 80.0712 6.588 79.5672 6.84C79.0632 7.092 78.6552 7.446 78.3432 7.902H77.1912L78.6312 0.719999H84.8052V1.854H79.5492L78.6492 6.444C78.9612 6.108 79.3452 5.85 79.8012 5.67C80.2692 5.478 80.7672 5.382 81.2952 5.382C82.0752 5.382 82.7772 5.556 83.4012 5.904C84.0372 6.252 84.5352 6.732 84.8952 7.344C85.2672 7.944 85.4532 8.646 85.4532 9.45C85.4532 10.278 85.2552 11.016 84.8592 11.664C84.4632 12.3 83.9292 12.798 83.2572 13.158C82.5972 13.506 81.8532 13.68 81.0252 13.68ZM91.655 13.5C91.643 12.744 91.703 12.078 91.835 11.502C91.967 10.926 92.165 10.416 92.429 9.972C92.705 9.528 93.035 9.144 93.419 8.82C93.803 8.484 94.235 8.19 94.715 7.938C95.171 7.686 95.645 7.458 96.137 7.254C96.629 7.038 97.085 6.804 97.505 6.552C97.925 6.3 98.261 5.994 98.513 5.634C98.777 5.262 98.909 4.8 98.909 4.248C98.909 3.792 98.807 3.372 98.603 2.988C98.411 2.604 98.111 2.298 97.703 2.07C97.295 1.83 96.779 1.71 96.155 1.71C95.543 1.71 94.997 1.812 94.517 2.016C94.049 2.22 93.653 2.466 93.329 2.754C93.017 3.042 92.765 3.306 92.573 3.546L91.763 2.754C91.835 2.67 91.979 2.508 92.195 2.268C92.423 2.028 92.723 1.776 93.095 1.512C93.479 1.248 93.929 1.026 94.445 0.846C94.973 0.653999 95.585 0.557999 96.281 0.557999C97.169 0.557999 97.907 0.731999 98.495 1.08C99.083 1.416 99.521 1.86 99.809 2.412C100.109 2.964 100.259 3.57 100.259 4.23C100.259 4.866 100.133 5.406 99.881 5.85C99.641 6.282 99.323 6.648 98.927 6.948C98.543 7.236 98.123 7.488 97.667 7.704C97.223 7.92 96.803 8.124 96.407 8.316C95.639 8.664 95.027 9.006 94.571 9.342C94.115 9.678 93.773 10.014 93.545 10.35C93.329 10.686 93.185 11.022 93.113 11.358C93.041 11.694 92.999 12.036 92.987 12.384H100.277V13.5H91.655ZM102.114 13.5C102.102 12.744 102.162 12.078 102.294 11.502C102.426 10.926 102.624 10.416 102.888 9.972C103.164 9.528 103.494 9.144 103.878 8.82C104.262 8.484 104.694 8.19 105.174 7.938C105.63 7.686 106.104 7.458 106.596 7.254C107.088 7.038 107.544 6.804 107.964 6.552C108.384 6.3 108.72 5.994 108.972 5.634C109.236 5.262 109.368 4.8 109.368 4.248C109.368 3.792 109.266 3.372 109.062 2.988C108.87 2.604 108.57 2.298 108.162 2.07C107.754 1.83 107.238 1.71 106.614 1.71C106.002 1.71 105.456 1.812 104.976 2.016C104.508 2.22 104.112 2.466 103.788 2.754C103.476 3.042 103.224 3.306 103.032 3.546L102.222 2.754C102.294 2.67 102.438 2.508 102.654 2.268C102.882 2.028 103.182 1.776 103.554 1.512C103.938 1.248 104.388 1.026 104.904 0.846C105.432 0.653999 106.044 0.557999 106.74 0.557999C107.628 0.557999 108.366 0.731999 108.954 1.08C109.542 1.416 109.98 1.86 110.268 2.412C110.568 2.964 110.718 3.57 110.718 4.23C110.718 4.866 110.592 5.406 110.34 5.85C110.1 6.282 109.782 6.648 109.386 6.948C109.002 7.236 108.582 7.488 108.126 7.704C107.682 7.92 107.262 8.124 106.866 8.316C106.098 8.664 105.486 9.006 105.03 9.342C104.574 9.678 104.232 10.014 104.004 10.35C103.788 10.686 103.644 11.022 103.572 11.358C103.5 11.694 103.458 12.036 103.446 12.384H110.736V13.5H102.114ZM121.121 13.68C120.209 13.68 119.387 13.458 118.655 13.014C117.935 12.558 117.389 11.958 117.017 11.214L117.845 10.602C118.169 11.19 118.625 11.664 119.213 12.024C119.801 12.384 120.443 12.564 121.139 12.564C121.739 12.564 122.273 12.432 122.741 12.168C123.221 11.904 123.599 11.544 123.875 11.088C124.163 10.62 124.307 10.08 124.307 9.468C124.307 8.88 124.169 8.364 123.893 7.92C123.617 7.464 123.251 7.11 122.795 6.858C122.339 6.594 121.823 6.462 121.247 6.462C120.695 6.462 120.167 6.588 119.663 6.84C119.159 7.092 118.751 7.446 118.439 7.902H117.287L118.727 0.719999H124.901V1.854H119.645L118.745 6.444C119.057 6.108 119.441 5.85 119.897 5.67C120.365 5.478 120.863 5.382 121.391 5.382C122.171 5.382 122.873 5.556 123.497 5.904C124.133 6.252 124.631 6.732 124.991 7.344C125.363 7.944 125.549 8.646 125.549 9.45C125.549 10.278 125.351 11.016 124.955 11.664C124.559 12.3 124.025 12.798 123.353 13.158C122.693 13.506 121.949 13.68 121.121 13.68ZM133.427 12.384V13.5H127.469V12.384H129.899V1.926C129.791 2.07 129.629 2.232 129.413 2.412C129.209 2.58 128.969 2.748 128.693 2.916C128.417 3.072 128.135 3.204 127.847 3.312C127.559 3.42 127.295 3.474 127.055 3.474V2.322C127.379 2.322 127.703 2.238 128.027 2.07C128.351 1.89 128.651 1.692 128.927 1.476C129.215 1.248 129.443 1.044 129.611 0.864C129.791 0.671999 129.887 0.569999 129.899 0.557999H131.141V12.384H133.427Z" fill="#333333"/>
</svg>
