<svg width="244" height="17" viewBox="0 0 244 17" fill="none" xmlns="http://www.w3.org/2000/svg">
<path d="M0.256 7.02C0.256 6.24 0.388 5.478 0.652 4.734C0.928 3.978 1.324 3.294 1.84 2.682C2.356 2.058 2.992 1.566 3.748 1.206C4.504 0.833999 5.362 0.647999 6.322 0.647999C7.462 0.647999 8.434 0.911999 9.238 1.44C10.054 1.956 10.654 2.622 11.038 3.438L10.048 4.05C9.772 3.486 9.424 3.042 9.004 2.718C8.584 2.382 8.134 2.142 7.654 1.998C7.186 1.854 6.718 1.782 6.25 1.782C5.482 1.782 4.804 1.938 4.216 2.25C3.628 2.55 3.13 2.958 2.722 3.474C2.326 3.978 2.026 4.548 1.822 5.184C1.618 5.808 1.516 6.444 1.516 7.092C1.516 7.8 1.636 8.478 1.876 9.126C2.116 9.774 2.452 10.35 2.884 10.854C3.316 11.346 3.82 11.742 4.396 12.042C4.984 12.33 5.62 12.474 6.304 12.474C6.784 12.474 7.276 12.39 7.78 12.222C8.284 12.054 8.752 11.796 9.184 11.448C9.628 11.1 9.982 10.65 10.246 10.098L11.29 10.638C11.026 11.274 10.618 11.814 10.066 12.258C9.514 12.702 8.896 13.038 8.212 13.266C7.54 13.494 6.88 13.608 6.232 13.608C5.356 13.608 4.552 13.422 3.82 13.05C3.088 12.666 2.452 12.162 1.912 11.538C1.384 10.902 0.976 10.194 0.688 9.414C0.4 8.622 0.256 7.824 0.256 7.02ZM12.4338 10.8C12.4338 10.212 12.6018 9.708 12.9378 9.288C13.2738 8.856 13.7358 8.526 14.3238 8.298C14.9238 8.058 15.6138 7.938 16.3938 7.938C16.8498 7.938 17.3238 7.974 17.8158 8.046C18.3078 8.118 18.7458 8.226 19.1298 8.37V7.578C19.1298 6.786 18.8958 6.156 18.4278 5.688C17.9598 5.22 17.3118 4.986 16.4838 4.986C15.9798 4.986 15.4818 5.082 14.9898 5.274C14.5098 5.454 14.0058 5.724 13.4778 6.084L13.0098 5.22C13.6218 4.8 14.2218 4.488 14.8098 4.284C15.3978 4.068 15.9978 3.96 16.6098 3.96C17.7618 3.96 18.6738 4.29 19.3458 4.95C20.0178 5.61 20.3538 6.522 20.3538 7.686V12.024C20.3538 12.192 20.3898 12.318 20.4618 12.402C20.5338 12.474 20.6478 12.516 20.8038 12.528V13.5C20.6718 13.512 20.5578 13.524 20.4618 13.536C20.3658 13.548 20.2938 13.548 20.2458 13.536C19.9458 13.524 19.7178 13.428 19.5618 13.248C19.4058 13.068 19.3218 12.876 19.3098 12.672L19.2918 11.988C18.8718 12.528 18.3258 12.948 17.6538 13.248C16.9818 13.536 16.2978 13.68 15.6018 13.68C15.0018 13.68 14.4558 13.554 13.9638 13.302C13.4838 13.038 13.1058 12.69 12.8298 12.258C12.5658 11.814 12.4338 11.328 12.4338 10.8ZM18.7158 11.52C18.8478 11.352 18.9498 11.19 19.0218 11.034C19.0938 10.878 19.1298 10.74 19.1298 10.62V9.252C18.7218 9.096 18.2958 8.976 17.8518 8.892C17.4198 8.808 16.9818 8.766 16.5378 8.766C15.6618 8.766 14.9538 8.94 14.4138 9.288C13.8738 9.636 13.6038 10.11 13.6038 10.71C13.6038 11.058 13.6938 11.388 13.8738 11.7C14.0538 12 14.3178 12.252 14.6658 12.456C15.0138 12.648 15.4218 12.744 15.8898 12.744C16.4778 12.744 17.0238 12.63 17.5278 12.402C18.0438 12.174 18.4398 11.88 18.7158 11.52ZM27.6784 5.202C26.8624 5.226 26.1424 5.454 25.5184 5.886C24.9064 6.318 24.4744 6.912 24.2224 7.668V13.5H22.9984V4.122H24.1504V6.372C24.4744 5.712 24.9004 5.178 25.4284 4.77C25.9684 4.362 26.5384 4.134 27.1384 4.086C27.2584 4.074 27.3604 4.068 27.4444 4.068C27.5404 4.068 27.6184 4.074 27.6784 4.086V5.202ZM33.989 5.202C33.173 5.226 32.453 5.454 31.829 5.886C31.217 6.318 30.785 6.912 30.533 7.668V13.5H29.309V4.122H30.461V6.372C30.785 5.712 31.211 5.178 31.739 4.77C32.279 4.362 32.849 4.134 33.449 4.086C33.569 4.074 33.671 4.068 33.755 4.068C33.851 4.068 33.929 4.074 33.989 4.086V5.202ZM39.3707 13.68C38.6987 13.68 38.0747 13.554 37.4987 13.302C36.9227 13.038 36.4247 12.684 36.0047 12.24C35.5847 11.784 35.2547 11.262 35.0147 10.674C34.7867 10.086 34.6727 9.456 34.6727 8.784C34.6727 7.908 34.8707 7.104 35.2667 6.372C35.6747 5.64 36.2327 5.058 36.9407 4.626C37.6487 4.182 38.4527 3.96 39.3527 3.96C40.2767 3.96 41.0807 4.182 41.7647 4.626C42.4607 5.07 43.0067 5.658 43.4027 6.39C43.7987 7.11 43.9967 7.902 43.9967 8.766C43.9967 8.862 43.9967 8.958 43.9967 9.054C43.9967 9.138 43.9907 9.204 43.9787 9.252H35.9507C36.0107 9.924 36.1967 10.524 36.5087 11.052C36.8327 11.568 37.2467 11.982 37.7507 12.294C38.2667 12.594 38.8247 12.744 39.4247 12.744C40.0367 12.744 40.6127 12.588 41.1527 12.276C41.7047 11.964 42.0887 11.556 42.3047 11.052L43.3667 11.34C43.1747 11.784 42.8807 12.186 42.4847 12.546C42.0887 12.906 41.6207 13.188 41.0807 13.392C40.5527 13.584 39.9827 13.68 39.3707 13.68ZM35.9147 8.37H42.8447C42.7967 7.686 42.6107 7.086 42.2867 6.57C41.9747 6.054 41.5607 5.652 41.0447 5.364C40.5407 5.064 39.9827 4.914 39.3707 4.914C38.7587 4.914 38.2007 5.064 37.6967 5.364C37.1927 5.652 36.7787 6.06 36.4547 6.588C36.1427 7.104 35.9627 7.698 35.9147 8.37ZM50.5652 5.202C49.7492 5.226 49.0292 5.454 48.4052 5.886C47.7932 6.318 47.3612 6.912 47.1092 7.668V13.5H45.8852V4.122H47.0372V6.372C47.3612 5.712 47.7872 5.178 48.3152 4.77C48.8552 4.362 49.4252 4.134 50.0252 4.086C50.1452 4.074 50.2472 4.068 50.3312 4.068C50.4272 4.068 50.5052 4.074 50.5652 4.086V5.202ZM55.7317 8.838C55.7317 7.95 55.9117 7.14 56.2717 6.408C56.6437 5.664 57.1537 5.07 57.8017 4.626C58.4497 4.182 59.1877 3.96 60.0157 3.96C60.7957 3.96 61.4917 4.17 62.1037 4.59C62.7277 4.998 63.2137 5.496 63.5617 6.084V0.36H64.7857V12.024C64.7857 12.192 64.8217 12.318 64.8937 12.402C64.9657 12.474 65.0737 12.516 65.2177 12.528V13.5C64.9777 13.536 64.7917 13.548 64.6597 13.536C64.4077 13.524 64.1857 13.422 63.9937 13.23C63.8017 13.038 63.7057 12.828 63.7057 12.6V11.682C63.3337 12.294 62.8297 12.78 62.1937 13.14C61.5577 13.5 60.8977 13.68 60.2137 13.68C59.5657 13.68 58.9657 13.548 58.4137 13.284C57.8737 13.02 57.3997 12.66 56.9917 12.204C56.5957 11.748 56.2837 11.232 56.0557 10.656C55.8397 10.068 55.7317 9.462 55.7317 8.838ZM63.5617 10.278V7.38C63.4057 6.948 63.1537 6.558 62.8057 6.21C62.4577 5.85 62.0617 5.568 61.6177 5.364C61.1857 5.148 60.7537 5.04 60.3217 5.04C59.8177 5.04 59.3617 5.148 58.9537 5.364C58.5457 5.568 58.1917 5.85 57.8917 6.21C57.6037 6.57 57.3817 6.978 57.2257 7.434C57.0697 7.89 56.9917 8.358 56.9917 8.838C56.9917 9.342 57.0757 9.822 57.2437 10.278C57.4237 10.734 57.6757 11.142 57.9997 11.502C58.3237 11.85 58.6957 12.12 59.1157 12.312C59.5357 12.504 59.9917 12.6 60.4837 12.6C60.7957 12.6 61.1197 12.54 61.4557 12.42C61.7917 12.3 62.1097 12.138 62.4097 11.934C62.7217 11.718 62.9797 11.466 63.1837 11.178C63.3877 10.89 63.5137 10.59 63.5617 10.278ZM71.609 13.68C70.937 13.68 70.313 13.554 69.737 13.302C69.161 13.038 68.663 12.684 68.243 12.24C67.823 11.784 67.493 11.262 67.253 10.674C67.025 10.086 66.911 9.456 66.911 8.784C66.911 7.908 67.109 7.104 67.505 6.372C67.913 5.64 68.471 5.058 69.179 4.626C69.887 4.182 70.691 3.96 71.591 3.96C72.515 3.96 73.319 4.182 74.003 4.626C74.699 5.07 75.245 5.658 75.641 6.39C76.037 7.11 76.235 7.902 76.235 8.766C76.235 8.862 76.235 8.958 76.235 9.054C76.235 9.138 76.229 9.204 76.217 9.252H68.189C68.249 9.924 68.435 10.524 68.747 11.052C69.071 11.568 69.485 11.982 69.989 12.294C70.505 12.594 71.063 12.744 71.663 12.744C72.275 12.744 72.851 12.588 73.391 12.276C73.943 11.964 74.327 11.556 74.543 11.052L75.605 11.34C75.413 11.784 75.119 12.186 74.723 12.546C74.327 12.906 73.859 13.188 73.319 13.392C72.791 13.584 72.221 13.68 71.609 13.68ZM68.153 8.37H75.083C75.035 7.686 74.849 7.086 74.525 6.57C74.213 6.054 73.799 5.652 73.283 5.364C72.779 5.064 72.221 4.914 71.609 4.914C70.997 4.914 70.439 5.064 69.935 5.364C69.431 5.652 69.017 6.06 68.693 6.588C68.381 7.104 68.201 7.698 68.153 8.37ZM92.5753 10.206C92.5753 10.842 92.4133 11.412 92.0893 11.916C91.7653 12.408 91.3273 12.798 90.7753 13.086C90.2353 13.362 89.6413 13.5 88.9933 13.5H82.9633V0.719999H89.1193C89.7193 0.719999 90.2353 0.881999 90.6673 1.206C91.1113 1.518 91.4473 1.926 91.6753 2.43C91.9153 2.922 92.0353 3.438 92.0353 3.978C92.0353 4.614 91.8733 5.202 91.5493 5.742C91.2253 6.282 90.7753 6.684 90.1993 6.948C90.9313 7.164 91.5073 7.566 91.9273 8.154C92.3593 8.742 92.5753 9.426 92.5753 10.206ZM91.3153 9.99C91.3153 9.558 91.2193 9.162 91.0273 8.802C90.8353 8.43 90.5713 8.13 90.2353 7.902C89.9113 7.674 89.5393 7.56 89.1193 7.56H84.2233V12.402H88.9933C89.4253 12.402 89.8153 12.288 90.1633 12.06C90.5113 11.832 90.7873 11.538 90.9913 11.178C91.2073 10.806 91.3153 10.41 91.3153 9.99ZM84.2233 1.818V6.534H88.6153C89.0353 6.534 89.4073 6.426 89.7313 6.21C90.0553 5.982 90.3133 5.688 90.5053 5.328C90.6973 4.968 90.7933 4.584 90.7933 4.176C90.7933 3.744 90.7033 3.354 90.5233 3.006C90.3433 2.646 90.0973 2.358 89.7853 2.142C89.4733 1.926 89.1193 1.818 88.7233 1.818H84.2233ZM98.7496 13.68C98.0776 13.68 97.4536 13.554 96.8776 13.302C96.3016 13.038 95.8036 12.684 95.3836 12.24C94.9636 11.784 94.6336 11.262 94.3936 10.674C94.1656 10.086 94.0516 9.456 94.0516 8.784C94.0516 7.908 94.2496 7.104 94.6456 6.372C95.0536 5.64 95.6116 5.058 96.3196 4.626C97.0276 4.182 97.8316 3.96 98.7316 3.96C99.6556 3.96 100.46 4.182 101.144 4.626C101.84 5.07 102.386 5.658 102.782 6.39C103.178 7.11 103.376 7.902 103.376 8.766C103.376 8.862 103.376 8.958 103.376 9.054C103.376 9.138 103.37 9.204 103.358 9.252H95.3296C95.3896 9.924 95.5756 10.524 95.8876 11.052C96.2116 11.568 96.6256 11.982 97.1296 12.294C97.6456 12.594 98.2036 12.744 98.8036 12.744C99.4156 12.744 99.9916 12.588 100.532 12.276C101.084 11.964 101.468 11.556 101.684 11.052L102.746 11.34C102.554 11.784 102.26 12.186 101.864 12.546C101.468 12.906 101 13.188 100.46 13.392C99.9316 13.584 99.3616 13.68 98.7496 13.68ZM95.2936 8.37H102.224C102.176 7.686 101.99 7.086 101.666 6.57C101.354 6.054 100.94 5.652 100.424 5.364C99.9196 5.064 99.3616 4.914 98.7496 4.914C98.1376 4.914 97.5796 5.064 97.0756 5.364C96.5716 5.652 96.1576 6.06 95.8336 6.588C95.5216 7.104 95.3416 7.698 95.2936 8.37ZM99.1096 2.34L98.2996 2.034L99.3616 0.36H100.658L99.1096 2.34ZM103.86 16.758C103.464 16.758 103.092 16.704 102.744 16.596C102.384 16.488 102.072 16.308 101.808 16.056L102.402 15.228C102.582 15.396 102.792 15.51 103.032 15.57C103.26 15.63 103.488 15.66 103.716 15.66C104.004 15.66 104.274 15.588 104.526 15.444C104.778 15.3 104.982 15.096 105.138 14.832C105.306 14.58 105.39 14.298 105.39 13.986V4.122H106.614V13.914C106.614 14.466 106.482 14.958 106.218 15.39C105.954 15.822 105.612 16.158 105.192 16.398C104.772 16.638 104.328 16.758 103.86 16.758ZM105.39 2.16V0.36H106.614V2.16H105.39ZM108.551 10.8C108.551 10.212 108.719 9.708 109.055 9.288C109.391 8.856 109.853 8.526 110.441 8.298C111.041 8.058 111.731 7.938 112.511 7.938C112.967 7.938 113.441 7.974 113.933 8.046C114.425 8.118 114.863 8.226 115.247 8.37V7.578C115.247 6.786 115.013 6.156 114.545 5.688C114.077 5.22 113.429 4.986 112.601 4.986C112.097 4.986 111.599 5.082 111.107 5.274C110.627 5.454 110.123 5.724 109.595 6.084L109.127 5.22C109.739 4.8 110.339 4.488 110.927 4.284C111.515 4.068 112.115 3.96 112.727 3.96C113.879 3.96 114.791 4.29 115.463 4.95C116.135 5.61 116.471 6.522 116.471 7.686V12.024C116.471 12.192 116.507 12.318 116.579 12.402C116.651 12.474 116.765 12.516 116.921 12.528V13.5C116.789 13.512 116.675 13.524 116.579 13.536C116.483 13.548 116.411 13.548 116.363 13.536C116.063 13.524 115.835 13.428 115.679 13.248C115.523 13.068 115.439 12.876 115.427 12.672L115.409 11.988C114.989 12.528 114.443 12.948 113.771 13.248C113.099 13.536 112.415 13.68 111.719 13.68C111.119 13.68 110.573 13.554 110.081 13.302C109.601 13.038 109.223 12.69 108.947 12.258C108.683 11.814 108.551 11.328 108.551 10.8ZM114.833 11.52C114.965 11.352 115.067 11.19 115.139 11.034C115.211 10.878 115.247 10.74 115.247 10.62V9.252C114.839 9.096 114.413 8.976 113.969 8.892C113.537 8.808 113.099 8.766 112.655 8.766C111.779 8.766 111.071 8.94 110.531 9.288C109.991 9.636 109.721 10.11 109.721 10.71C109.721 11.058 109.811 11.388 109.991 11.7C110.171 12 110.435 12.252 110.783 12.456C111.131 12.648 111.539 12.744 112.007 12.744C112.595 12.744 113.141 12.63 113.645 12.402C114.161 12.174 114.557 11.88 114.833 11.52ZM123.796 5.202C122.98 5.226 122.26 5.454 121.636 5.886C121.024 6.318 120.592 6.912 120.34 7.668V13.5H119.116V4.122H120.268V6.372C120.592 5.712 121.018 5.178 121.546 4.77C122.086 4.362 122.656 4.134 123.256 4.086C123.376 4.074 123.478 4.068 123.562 4.068C123.658 4.068 123.736 4.074 123.796 4.086V5.202ZM123.866 14.958L124.172 13.446H123.758V11.736H124.946V13.446L124.496 14.958H123.866ZM136.079 13.662C135.323 13.662 134.639 13.536 134.027 13.284C133.415 13.032 132.917 12.684 132.533 12.24C132.149 11.796 131.909 11.28 131.813 10.692L132.569 10.008C132.593 10.416 132.755 10.818 133.055 11.214C133.355 11.598 133.763 11.91 134.279 12.15C134.807 12.39 135.407 12.51 136.079 12.51C136.679 12.51 137.219 12.408 137.699 12.204C138.191 11.988 138.575 11.7 138.851 11.34C139.139 10.968 139.283 10.536 139.283 10.044C139.283 9.516 139.115 9.066 138.779 8.694C138.443 8.31 137.969 8.016 137.357 7.812C136.745 7.608 136.019 7.506 135.179 7.506H134.567V6.444H135.179C136.343 6.444 137.261 6.252 137.933 5.868C138.605 5.484 138.941 4.908 138.941 4.14C138.941 3.636 138.803 3.198 138.527 2.826C138.263 2.454 137.903 2.166 137.447 1.962C137.003 1.758 136.517 1.656 135.989 1.656C135.197 1.656 134.519 1.83 133.955 2.178C133.391 2.526 132.995 2.958 132.767 3.474L131.921 2.646C132.149 2.214 132.467 1.842 132.875 1.53C133.295 1.218 133.769 0.977999 134.297 0.809999C134.837 0.641999 135.395 0.557999 135.971 0.557999C136.787 0.557999 137.513 0.713999 138.149 1.026C138.797 1.338 139.301 1.758 139.661 2.286C140.033 2.814 140.219 3.42 140.219 4.104C140.219 4.584 140.123 5.016 139.931 5.4C139.739 5.772 139.457 6.09 139.085 6.354C138.713 6.606 138.257 6.798 137.717 6.93C138.281 7.038 138.773 7.248 139.193 7.56C139.625 7.872 139.955 8.256 140.183 8.712C140.423 9.156 140.543 9.648 140.543 10.188C140.543 10.908 140.333 11.526 139.913 12.042C139.505 12.558 138.965 12.96 138.293 13.248C137.621 13.524 136.883 13.662 136.079 13.662ZM151.235 9.954C151.235 10.698 151.025 11.346 150.605 11.898C150.197 12.45 149.651 12.882 148.967 13.194C148.295 13.494 147.557 13.644 146.753 13.644C145.901 13.644 145.145 13.476 144.485 13.14C143.825 12.792 143.303 12.336 142.919 11.772C142.547 11.208 142.361 10.578 142.361 9.882C142.361 9.342 142.487 8.856 142.739 8.424C143.003 7.98 143.327 7.608 143.711 7.308C144.107 7.008 144.509 6.792 144.917 6.66C144.545 6.504 144.197 6.3 143.873 6.048C143.549 5.784 143.291 5.478 143.099 5.13C142.907 4.782 142.811 4.398 142.811 3.978C142.811 3.45 142.925 2.988 143.153 2.592C143.393 2.184 143.705 1.842 144.089 1.566C144.473 1.278 144.899 1.068 145.367 0.936C145.847 0.791999 146.327 0.719999 146.807 0.719999C147.275 0.719999 147.743 0.791999 148.211 0.936C148.691 1.068 149.123 1.272 149.507 1.548C149.903 1.824 150.215 2.166 150.443 2.574C150.683 2.97 150.803 3.432 150.803 3.96C150.803 4.38 150.701 4.77 150.497 5.13C150.305 5.478 150.047 5.784 149.723 6.048C149.399 6.3 149.045 6.504 148.661 6.66C149.129 6.816 149.555 7.056 149.939 7.38C150.335 7.692 150.647 8.064 150.875 8.496C151.115 8.928 151.235 9.414 151.235 9.954ZM149.993 9.864C149.993 9.432 149.897 9.054 149.705 8.73C149.525 8.394 149.273 8.112 148.949 7.884C148.637 7.656 148.289 7.482 147.905 7.362C147.533 7.242 147.155 7.182 146.771 7.182C146.255 7.182 145.751 7.296 145.259 7.524C144.779 7.74 144.383 8.052 144.071 8.46C143.771 8.856 143.621 9.33 143.621 9.882C143.621 10.302 143.711 10.674 143.891 10.998C144.083 11.322 144.335 11.604 144.647 11.844C144.959 12.072 145.301 12.246 145.673 12.366C146.057 12.486 146.441 12.546 146.825 12.546C147.341 12.546 147.839 12.438 148.319 12.222C148.811 11.994 149.213 11.676 149.525 11.268C149.837 10.86 149.993 10.392 149.993 9.864ZM144.035 4.032C144.035 4.488 144.173 4.884 144.449 5.22C144.737 5.544 145.097 5.79 145.529 5.958C145.961 6.126 146.381 6.21 146.789 6.21C147.221 6.21 147.647 6.126 148.067 5.958C148.499 5.778 148.853 5.526 149.129 5.202C149.417 4.866 149.561 4.464 149.561 3.996C149.561 3.54 149.429 3.15 149.165 2.826C148.901 2.502 148.553 2.256 148.121 2.088C147.701 1.92 147.251 1.836 146.771 1.836C146.315 1.836 145.871 1.926 145.439 2.106C145.019 2.274 144.677 2.526 144.413 2.862C144.161 3.186 144.035 3.576 144.035 4.032ZM153.679 14.958L153.985 13.446H153.571V11.736H154.759V13.446L154.309 14.958H153.679ZM171.976 10.206C171.976 10.842 171.814 11.412 171.49 11.916C171.166 12.408 170.728 12.798 170.176 13.086C169.636 13.362 169.042 13.5 168.394 13.5H162.364V0.719999H168.52C169.12 0.719999 169.636 0.881999 170.068 1.206C170.512 1.518 170.848 1.926 171.076 2.43C171.316 2.922 171.436 3.438 171.436 3.978C171.436 4.614 171.274 5.202 170.95 5.742C170.626 6.282 170.176 6.684 169.6 6.948C170.332 7.164 170.908 7.566 171.328 8.154C171.76 8.742 171.976 9.426 171.976 10.206ZM170.716 9.99C170.716 9.558 170.62 9.162 170.428 8.802C170.236 8.43 169.972 8.13 169.636 7.902C169.312 7.674 168.94 7.56 168.52 7.56H163.624V12.402H168.394C168.826 12.402 169.216 12.288 169.564 12.06C169.912 11.832 170.188 11.538 170.392 11.178C170.608 10.806 170.716 10.41 170.716 9.99ZM163.624 1.818V6.534H168.016C168.436 6.534 168.808 6.426 169.132 6.21C169.456 5.982 169.714 5.688 169.906 5.328C170.098 4.968 170.194 4.584 170.194 4.176C170.194 3.744 170.104 3.354 169.924 3.006C169.744 2.646 169.498 2.358 169.186 2.142C168.874 1.926 168.52 1.818 168.124 1.818H163.624ZM173.344 10.8C173.344 10.212 173.512 9.708 173.848 9.288C174.184 8.856 174.646 8.526 175.234 8.298C175.834 8.058 176.524 7.938 177.304 7.938C177.76 7.938 178.234 7.974 178.726 8.046C179.218 8.118 179.656 8.226 180.04 8.37V7.578C180.04 6.786 179.806 6.156 179.338 5.688C178.87 5.22 178.222 4.986 177.394 4.986C176.89 4.986 176.392 5.082 175.9 5.274C175.42 5.454 174.916 5.724 174.388 6.084L173.92 5.22C174.532 4.8 175.132 4.488 175.72 4.284C176.308 4.068 176.908 3.96 177.52 3.96C178.672 3.96 179.584 4.29 180.256 4.95C180.928 5.61 181.264 6.522 181.264 7.686V12.024C181.264 12.192 181.3 12.318 181.372 12.402C181.444 12.474 181.558 12.516 181.714 12.528V13.5C181.582 13.512 181.468 13.524 181.372 13.536C181.276 13.548 181.204 13.548 181.156 13.536C180.856 13.524 180.628 13.428 180.472 13.248C180.316 13.068 180.232 12.876 180.22 12.672L180.202 11.988C179.782 12.528 179.236 12.948 178.564 13.248C177.892 13.536 177.208 13.68 176.512 13.68C175.912 13.68 175.366 13.554 174.874 13.302C174.394 13.038 174.016 12.69 173.74 12.258C173.476 11.814 173.344 11.328 173.344 10.8ZM179.626 11.52C179.758 11.352 179.86 11.19 179.932 11.034C180.004 10.878 180.04 10.74 180.04 10.62V9.252C179.632 9.096 179.206 8.976 178.762 8.892C178.33 8.808 177.892 8.766 177.448 8.766C176.572 8.766 175.864 8.94 175.324 9.288C174.784 9.636 174.514 10.11 174.514 10.71C174.514 11.058 174.604 11.388 174.784 11.7C174.964 12 175.228 12.252 175.576 12.456C175.924 12.648 176.332 12.744 176.8 12.744C177.388 12.744 177.934 12.63 178.438 12.402C178.954 12.174 179.35 11.88 179.626 11.52ZM188.589 5.202C187.773 5.226 187.053 5.454 186.429 5.886C185.817 6.318 185.385 6.912 185.133 7.668V13.5H183.909V4.122H185.061V6.372C185.385 5.712 185.811 5.178 186.339 4.77C186.879 4.362 187.449 4.134 188.049 4.086C188.169 4.074 188.271 4.068 188.355 4.068C188.451 4.068 188.529 4.074 188.589 4.086V5.202ZM193.988 13.68C193.304 13.68 192.674 13.554 192.098 13.302C191.534 13.038 191.036 12.678 190.604 12.222C190.184 11.766 189.854 11.244 189.614 10.656C189.386 10.068 189.272 9.444 189.272 8.784C189.272 7.896 189.47 7.086 189.866 6.354C190.262 5.622 190.814 5.04 191.522 4.608C192.23 4.176 193.046 3.96 193.97 3.96C194.846 3.96 195.62 4.164 196.292 4.572C196.964 4.968 197.462 5.508 197.786 6.192L196.598 6.57C196.334 6.09 195.962 5.718 195.482 5.454C195.014 5.178 194.492 5.04 193.916 5.04C193.292 5.04 192.722 5.202 192.206 5.526C191.69 5.85 191.276 6.294 190.964 6.858C190.664 7.422 190.514 8.064 190.514 8.784C190.514 9.492 190.67 10.134 190.982 10.71C191.294 11.286 191.708 11.748 192.224 12.096C192.74 12.432 193.31 12.6 193.934 12.6C194.342 12.6 194.732 12.528 195.104 12.384C195.488 12.24 195.818 12.048 196.094 11.808C196.382 11.556 196.574 11.286 196.67 10.998L197.876 11.358C197.708 11.802 197.426 12.204 197.03 12.564C196.646 12.912 196.19 13.188 195.662 13.392C195.146 13.584 194.588 13.68 193.988 13.68ZM203.761 13.68C203.089 13.68 202.465 13.554 201.889 13.302C201.313 13.038 200.815 12.684 200.395 12.24C199.975 11.784 199.645 11.262 199.405 10.674C199.177 10.086 199.063 9.456 199.063 8.784C199.063 7.908 199.261 7.104 199.657 6.372C200.065 5.64 200.623 5.058 201.331 4.626C202.039 4.182 202.843 3.96 203.743 3.96C204.667 3.96 205.471 4.182 206.155 4.626C206.851 5.07 207.397 5.658 207.793 6.39C208.189 7.11 208.387 7.902 208.387 8.766C208.387 8.862 208.387 8.958 208.387 9.054C208.387 9.138 208.381 9.204 208.369 9.252H200.341C200.401 9.924 200.587 10.524 200.899 11.052C201.223 11.568 201.637 11.982 202.141 12.294C202.657 12.594 203.215 12.744 203.815 12.744C204.427 12.744 205.003 12.588 205.543 12.276C206.095 11.964 206.479 11.556 206.695 11.052L207.757 11.34C207.565 11.784 207.271 12.186 206.875 12.546C206.479 12.906 206.011 13.188 205.471 13.392C204.943 13.584 204.373 13.68 203.761 13.68ZM200.305 8.37H207.235C207.187 7.686 207.001 7.086 206.677 6.57C206.365 6.054 205.951 5.652 205.435 5.364C204.931 5.064 204.373 4.914 203.761 4.914C203.149 4.914 202.591 5.064 202.087 5.364C201.583 5.652 201.169 6.06 200.845 6.588C200.533 7.104 200.353 7.698 200.305 8.37ZM210.33 0.36H211.554V11.376C211.554 11.844 211.638 12.15 211.806 12.294C211.974 12.438 212.178 12.51 212.418 12.51C212.634 12.51 212.85 12.486 213.066 12.438C213.282 12.39 213.468 12.342 213.624 12.294L213.84 13.284C213.612 13.38 213.33 13.458 212.994 13.518C212.67 13.578 212.388 13.608 212.148 13.608C211.596 13.608 211.152 13.446 210.816 13.122C210.492 12.798 210.33 12.354 210.33 11.79V0.36ZM219.176 13.68C218.504 13.68 217.88 13.554 217.304 13.302C216.74 13.038 216.248 12.684 215.828 12.24C215.42 11.784 215.102 11.268 214.874 10.692C214.646 10.104 214.532 9.486 214.532 8.838C214.532 8.166 214.646 7.542 214.874 6.966C215.102 6.378 215.426 5.862 215.846 5.418C216.266 4.962 216.758 4.608 217.322 4.356C217.898 4.092 218.522 3.96 219.194 3.96C219.866 3.96 220.484 4.092 221.048 4.356C221.612 4.608 222.104 4.962 222.524 5.418C222.944 5.862 223.268 6.378 223.496 6.966C223.724 7.542 223.838 8.166 223.838 8.838C223.838 9.486 223.724 10.104 223.496 10.692C223.268 11.268 222.944 11.784 222.524 12.24C222.116 12.684 221.624 13.038 221.048 13.302C220.484 13.554 219.86 13.68 219.176 13.68ZM215.774 8.856C215.774 9.552 215.924 10.188 216.224 10.764C216.536 11.328 216.95 11.778 217.466 12.114C217.982 12.438 218.552 12.6 219.176 12.6C219.8 12.6 220.37 12.432 220.886 12.096C221.402 11.76 221.816 11.304 222.128 10.728C222.44 10.14 222.596 9.504 222.596 8.82C222.596 8.124 222.44 7.488 222.128 6.912C221.816 6.336 221.402 5.88 220.886 5.544C220.37 5.208 219.8 5.04 219.176 5.04C218.552 5.04 217.982 5.214 217.466 5.562C216.962 5.91 216.554 6.372 216.242 6.948C215.93 7.512 215.774 8.148 215.774 8.856ZM233.769 13.5H232.545V8.262C232.545 7.158 232.383 6.354 232.059 5.85C231.735 5.334 231.225 5.076 230.529 5.076C230.049 5.076 229.575 5.196 229.107 5.436C228.639 5.664 228.225 5.982 227.865 6.39C227.517 6.786 227.265 7.242 227.109 7.758V13.5H225.885V4.122H227.001V6.246C227.253 5.79 227.583 5.394 227.991 5.058C228.399 4.71 228.861 4.44 229.377 4.248C229.893 4.056 230.427 3.96 230.979 3.96C231.495 3.96 231.933 4.056 232.293 4.248C232.653 4.44 232.941 4.716 233.157 5.076C233.373 5.424 233.529 5.85 233.625 6.354C233.721 6.846 233.769 7.398 233.769 8.01V13.5ZM235.623 10.8C235.623 10.212 235.791 9.708 236.127 9.288C236.463 8.856 236.925 8.526 237.513 8.298C238.113 8.058 238.803 7.938 239.583 7.938C240.039 7.938 240.513 7.974 241.005 8.046C241.497 8.118 241.935 8.226 242.319 8.37V7.578C242.319 6.786 242.085 6.156 241.617 5.688C241.149 5.22 240.501 4.986 239.673 4.986C239.169 4.986 238.671 5.082 238.179 5.274C237.699 5.454 237.195 5.724 236.667 6.084L236.199 5.22C236.811 4.8 237.411 4.488 237.999 4.284C238.587 4.068 239.187 3.96 239.799 3.96C240.951 3.96 241.863 4.29 242.535 4.95C243.207 5.61 243.543 6.522 243.543 7.686V12.024C243.543 12.192 243.579 12.318 243.651 12.402C243.723 12.474 243.837 12.516 243.993 12.528V13.5C243.861 13.512 243.747 13.524 243.651 13.536C243.555 13.548 243.483 13.548 243.435 13.536C243.135 13.524 242.907 13.428 242.751 13.248C242.595 13.068 242.511 12.876 242.499 12.672L242.481 11.988C242.061 12.528 241.515 12.948 240.843 13.248C240.171 13.536 239.487 13.68 238.791 13.68C238.191 13.68 237.645 13.554 237.153 13.302C236.673 13.038 236.295 12.69 236.019 12.258C235.755 11.814 235.623 11.328 235.623 10.8ZM241.905 11.52C242.037 11.352 242.139 11.19 242.211 11.034C242.283 10.878 242.319 10.74 242.319 10.62V9.252C241.911 9.096 241.485 8.976 241.041 8.892C240.609 8.808 240.171 8.766 239.727 8.766C238.851 8.766 238.143 8.94 237.603 9.288C237.063 9.636 236.793 10.11 236.793 10.71C236.793 11.058 236.883 11.388 237.063 11.7C237.243 12 237.507 12.252 237.855 12.456C238.203 12.648 238.611 12.744 239.079 12.744C239.667 12.744 240.213 12.63 240.717 12.402C241.233 12.174 241.629 11.88 241.905 11.52Z" fill="#333333"/>
</svg>
