<svg width="351" height="58" viewBox="0 0 351 58" fill="none" xmlns="http://www.w3.org/2000/svg">
<rect x="0.5" width="350" height="58" rx="29" fill="#FFE711"/>
<path d="M110.509 37V19.96H123.661V37H121.501V21.88H112.669V37H110.509ZM127.399 37V24.472H129.511V37H127.399ZM127.399 22.12V19.48H129.511V22.12H127.399ZM131.539 39.952V35.128H131.803C132.155 35.128 132.475 35.024 132.763 34.816C133.067 34.608 133.331 34.248 133.555 33.736C133.795 33.208 133.987 32.488 134.131 31.576C134.275 30.664 134.371 29.504 134.419 28.096L134.539 24.472H143.059V35.128H144.763V39.952H142.891V37H133.411V39.952H131.539ZM134.755 35.128H140.947V26.344H136.411L136.339 28.288C136.291 29.648 136.195 30.792 136.051 31.72C135.923 32.632 135.747 33.36 135.523 33.904C135.315 34.448 135.059 34.856 134.755 35.128ZM150.158 37V26.344H145.838V24.472H156.59V26.344H152.27V37H150.158ZM165.456 37.24C164.432 37.24 163.52 36.984 162.72 36.472C161.92 35.96 161.288 35.312 160.824 34.528V42.112H158.712V24.472H160.584V26.824C161.08 26.056 161.728 25.44 162.528 24.976C163.328 24.496 164.2 24.256 165.144 24.256C166.008 24.256 166.8 24.432 167.52 24.784C168.24 25.136 168.864 25.616 169.392 26.224C169.92 26.832 170.328 27.528 170.616 28.312C170.92 29.08 171.072 29.888 171.072 30.736C171.072 31.92 170.832 33.008 170.352 34C169.888 34.992 169.232 35.784 168.384 36.376C167.536 36.952 166.56 37.24 165.456 37.24ZM164.808 35.416C165.432 35.416 165.992 35.288 166.488 35.032C167 34.76 167.432 34.408 167.784 33.976C168.152 33.528 168.432 33.024 168.624 32.464C168.816 31.904 168.912 31.328 168.912 30.736C168.912 30.112 168.8 29.52 168.576 28.96C168.368 28.4 168.064 27.904 167.664 27.472C167.28 27.04 166.824 26.704 166.296 26.464C165.784 26.208 165.224 26.08 164.616 26.08C164.232 26.08 163.832 26.152 163.416 26.296C163.016 26.44 162.632 26.648 162.264 26.92C161.896 27.176 161.584 27.472 161.328 27.808C161.072 28.144 160.904 28.504 160.824 28.888V32.464C161.064 33.008 161.384 33.504 161.784 33.952C162.184 34.4 162.648 34.76 163.176 35.032C163.704 35.288 164.248 35.416 164.808 35.416ZM173.641 37V24.496H175.753V34.168L182.761 24.472H184.681V37H182.569V27.52L175.657 37H173.641ZM188.032 37V24.472H190.216L194.872 32.68L199.552 24.472H201.688V37H199.672V27.52L195.544 34.768H194.2L190.048 27.52V37H188.032ZM204.111 33.376C204.111 32.576 204.335 31.888 204.783 31.312C205.247 30.72 205.879 30.264 206.679 29.944C207.479 29.624 208.407 29.464 209.463 29.464C210.023 29.464 210.615 29.512 211.239 29.608C211.863 29.688 212.415 29.816 212.895 29.992V29.08C212.895 28.12 212.607 27.368 212.031 26.824C211.455 26.264 210.639 25.984 209.583 25.984C208.895 25.984 208.231 26.112 207.591 26.368C206.967 26.608 206.303 26.96 205.599 27.424L204.831 25.936C205.647 25.376 206.463 24.96 207.279 24.688C208.095 24.4 208.943 24.256 209.823 24.256C211.423 24.256 212.687 24.704 213.615 25.6C214.543 26.48 215.007 27.712 215.007 29.296V34.6C215.007 34.856 215.055 35.048 215.151 35.176C215.263 35.288 215.439 35.352 215.679 35.368V37C215.471 37.032 215.287 37.056 215.127 37.072C214.983 37.088 214.863 37.096 214.767 37.096C214.271 37.096 213.895 36.96 213.639 36.688C213.399 36.416 213.263 36.128 213.231 35.824L213.183 35.032C212.639 35.736 211.927 36.28 211.047 36.664C210.167 37.048 209.295 37.24 208.431 37.24C207.599 37.24 206.855 37.072 206.199 36.736C205.543 36.384 205.031 35.92 204.663 35.344C204.295 34.752 204.111 34.096 204.111 33.376ZM212.271 34.264C212.463 34.04 212.615 33.816 212.727 33.592C212.839 33.352 212.895 33.152 212.895 32.992V31.432C212.399 31.24 211.879 31.096 211.335 31C210.791 30.888 210.255 30.832 209.727 30.832C208.655 30.832 207.783 31.048 207.111 31.48C206.455 31.896 206.127 32.472 206.127 33.208C206.127 33.608 206.231 34 206.439 34.384C206.663 34.752 206.983 35.056 207.399 35.296C207.831 35.536 208.359 35.656 208.983 35.656C209.639 35.656 210.263 35.528 210.855 35.272C211.447 35 211.919 34.664 212.271 34.264ZM221.291 37V26.344H216.971V24.472H227.723V26.344H223.403V37H221.291ZM229.821 37V24.496H231.933V34.168L238.941 24.472H240.861V37H238.749V27.52L231.837 37H229.821Z" fill="#333333"/>
</svg>
