<svg width="351" height="58" viewBox="0 0 351 58" fill="none" xmlns="http://www.w3.org/2000/svg">
<rect x="0.5" y="0.000244141" width="350" height="58" rx="29" fill="#FFE711"/>
<path d="M110.509 37.0002V19.9602H123.661V37.0002H121.501V21.8802H112.669V37.0002H110.509ZM127.399 37.0002V24.4722H129.511V37.0002H127.399ZM127.399 22.1202V19.4802H129.511V22.1202H127.399ZM131.539 39.9522V35.1282H131.803C132.155 35.1282 132.475 35.0242 132.763 34.8162C133.067 34.6082 133.331 34.2482 133.555 33.7362C133.795 33.2082 133.987 32.4882 134.131 31.5762C134.275 30.6642 134.371 29.5042 134.419 28.0962L134.539 24.4722H143.059V35.1282H144.763V39.9522H142.891V37.0002H133.411V39.9522H131.539ZM134.755 35.1282H140.947V26.3442H136.411L136.339 28.2882C136.291 29.6482 136.195 30.7922 136.051 31.7202C135.923 32.6322 135.747 33.3602 135.523 33.9042C135.315 34.4482 135.059 34.8562 134.755 35.1282ZM150.158 37.0002V26.3442H145.838V24.4722H156.59V26.3442H152.27V37.0002H150.158ZM165.456 37.2402C164.432 37.2402 163.52 36.9842 162.72 36.4722C161.92 35.9602 161.288 35.3122 160.824 34.5282V42.1122H158.712V24.4722H160.584V26.8242C161.08 26.0562 161.728 25.4402 162.528 24.9762C163.328 24.4962 164.2 24.2562 165.144 24.2562C166.008 24.2562 166.8 24.4322 167.52 24.7842C168.24 25.1362 168.864 25.6162 169.392 26.2242C169.92 26.8322 170.328 27.5282 170.616 28.3122C170.92 29.0802 171.072 29.8882 171.072 30.7362C171.072 31.9202 170.832 33.0082 170.352 34.0002C169.888 34.9922 169.232 35.7842 168.384 36.3762C167.536 36.9522 166.56 37.2402 165.456 37.2402ZM164.808 35.4162C165.432 35.4162 165.992 35.2882 166.488 35.0322C167 34.7602 167.432 34.4082 167.784 33.9762C168.152 33.5282 168.432 33.0242 168.624 32.4642C168.816 31.9042 168.912 31.3282 168.912 30.7362C168.912 30.1122 168.8 29.5202 168.576 28.9602C168.368 28.4002 168.064 27.9042 167.664 27.4722C167.28 27.0402 166.824 26.7042 166.296 26.4642C165.784 26.2082 165.224 26.0802 164.616 26.0802C164.232 26.0802 163.832 26.1522 163.416 26.2962C163.016 26.4402 162.632 26.6482 162.264 26.9202C161.896 27.1762 161.584 27.4722 161.328 27.8082C161.072 28.1442 160.904 28.5042 160.824 28.8882V32.4642C161.064 33.0082 161.384 33.5042 161.784 33.9522C162.184 34.4002 162.648 34.7602 163.176 35.0322C163.704 35.2882 164.248 35.4162 164.808 35.4162ZM173.641 37.0002V24.4962H175.753V34.1682L182.761 24.4722H184.681V37.0002H182.569V27.5202L175.657 37.0002H173.641ZM188.032 37.0002V24.4722H190.216L194.872 32.6802L199.552 24.4722H201.688V37.0002H199.672V27.5202L195.544 34.7682H194.2L190.048 27.5202V37.0002H188.032ZM204.111 33.3762C204.111 32.5762 204.335 31.8882 204.783 31.3122C205.247 30.7202 205.879 30.2642 206.679 29.9442C207.479 29.6242 208.407 29.4642 209.463 29.4642C210.023 29.4642 210.615 29.5122 211.239 29.6082C211.863 29.6882 212.415 29.8162 212.895 29.9922V29.0802C212.895 28.1202 212.607 27.3682 212.031 26.8242C211.455 26.2642 210.639 25.9842 209.583 25.9842C208.895 25.9842 208.231 26.1122 207.591 26.3682C206.967 26.6082 206.303 26.9602 205.599 27.4242L204.831 25.9362C205.647 25.3762 206.463 24.9602 207.279 24.6882C208.095 24.4002 208.943 24.2562 209.823 24.2562C211.423 24.2562 212.687 24.7042 213.615 25.6002C214.543 26.4802 215.007 27.7122 215.007 29.2962V34.6002C215.007 34.8562 215.055 35.0482 215.151 35.1762C215.263 35.2882 215.439 35.3522 215.679 35.3682V37.0002C215.471 37.0322 215.287 37.0562 215.127 37.0722C214.983 37.0882 214.863 37.0962 214.767 37.0962C214.271 37.0962 213.895 36.9602 213.639 36.6882C213.399 36.4162 213.263 36.1282 213.231 35.8242L213.183 35.0322C212.639 35.7362 211.927 36.2802 211.047 36.6642C210.167 37.0482 209.295 37.2402 208.431 37.2402C207.599 37.2402 206.855 37.0722 206.199 36.7362C205.543 36.3842 205.031 35.9202 204.663 35.3442C204.295 34.7522 204.111 34.0962 204.111 33.3762ZM212.271 34.2642C212.463 34.0402 212.615 33.8162 212.727 33.5922C212.839 33.3522 212.895 33.1522 212.895 32.9922V31.4322C212.399 31.2402 211.879 31.0962 211.335 31.0002C210.791 30.8882 210.255 30.8322 209.727 30.8322C208.655 30.8322 207.783 31.0482 207.111 31.4802C206.455 31.8962 206.127 32.4722 206.127 33.2082C206.127 33.6082 206.231 34.0002 206.439 34.3842C206.663 34.7522 206.983 35.0562 207.399 35.2962C207.831 35.5362 208.359 35.6562 208.983 35.6562C209.639 35.6562 210.263 35.5282 210.855 35.2722C211.447 35.0002 211.919 34.6642 212.271 34.2642ZM221.291 37.0002V26.3442H216.971V24.4722H227.723V26.3442H223.403V37.0002H221.291ZM229.821 37.0002V24.4962H231.933V34.1682L238.941 24.4722H240.861V37.0002H238.749V27.5202L231.837 37.0002H229.821Z" fill="#333333"/>
</svg>
