<svg width="346" height="58" viewBox="0 0 346 58" fill="none" xmlns="http://www.w3.org/2000/svg">
<rect x="1" y="0.500244" width="344" height="57" rx="28.5" stroke="#333333"/>
<path d="M150.658 37.1922C149.426 37.1922 148.314 36.9362 147.322 36.4242C146.346 35.8962 145.578 35.1682 145.018 34.2402L146.674 33.2322C147.074 33.9042 147.61 34.4322 148.282 34.8162C148.954 35.1842 149.73 35.3682 150.61 35.3682C151.778 35.3682 152.682 35.0802 153.322 34.5042C153.978 33.9282 154.306 33.1602 154.306 32.2002C154.306 31.5922 154.17 31.0562 153.898 30.5922C153.626 30.1122 153.234 29.7442 152.722 29.4882C152.21 29.2162 151.586 29.0802 150.85 29.0802H149.098V27.3762H150.874C151.45 27.3762 151.946 27.2562 152.362 27.0162C152.794 26.7602 153.122 26.4242 153.346 26.0082C153.586 25.5762 153.706 25.0962 153.706 24.5682C153.706 24.0082 153.578 23.5202 153.322 23.1042C153.066 22.6722 152.698 22.3362 152.218 22.0962C151.754 21.8562 151.194 21.7362 150.538 21.7362C149.706 21.7362 148.978 21.9202 148.354 22.2882C147.73 22.6402 147.242 23.1282 146.89 23.7522L145.306 22.6722C145.85 21.7762 146.562 21.0722 147.442 20.5602C148.322 20.0322 149.386 19.7682 150.634 19.7682C151.674 19.7682 152.578 19.9522 153.346 20.3202C154.114 20.6882 154.714 21.2082 155.146 21.8802C155.578 22.5522 155.794 23.3522 155.794 24.2802C155.794 25.1122 155.586 25.8802 155.17 26.5842C154.77 27.2722 154.17 27.7922 153.37 28.1442C154.362 28.4162 155.13 28.9362 155.674 29.7042C156.218 30.4722 156.49 31.3682 156.49 32.3922C156.49 33.4002 156.234 34.2642 155.722 34.9842C155.226 35.7042 154.538 36.2562 153.658 36.6402C152.794 37.0082 151.794 37.1922 150.658 37.1922ZM159.164 37.0002V24.4722H165.644C166.396 24.4722 167.02 24.6242 167.516 24.9282C168.012 25.2162 168.38 25.5922 168.62 26.0562C168.876 26.5202 169.004 27.0162 169.004 27.5442C169.004 28.2162 168.844 28.8242 168.524 29.3682C168.204 29.8962 167.74 30.2962 167.132 30.5682C167.852 30.7762 168.436 31.1522 168.884 31.6962C169.332 32.2242 169.556 32.8802 169.556 33.6642C169.556 34.3682 169.388 34.9682 169.052 35.4642C168.716 35.9602 168.244 36.3442 167.636 36.6162C167.028 36.8722 166.324 37.0002 165.524 37.0002H159.164ZM161.18 35.5122H165.476C165.86 35.5122 166.204 35.4162 166.508 35.2242C166.828 35.0322 167.076 34.7762 167.252 34.4562C167.428 34.1362 167.516 33.8002 167.516 33.4482C167.516 33.0642 167.428 32.7202 167.252 32.4162C167.092 32.0962 166.86 31.8482 166.556 31.6722C166.268 31.4802 165.932 31.3842 165.548 31.3842H161.18V35.5122ZM161.18 29.9922H165.092C165.476 29.9922 165.812 29.8962 166.1 29.7042C166.388 29.4962 166.612 29.2322 166.772 28.9122C166.932 28.5922 167.012 28.2562 167.012 27.9042C167.012 27.3762 166.836 26.9202 166.484 26.5362C166.148 26.1522 165.708 25.9602 165.164 25.9602H161.18V29.9922ZM172.243 37.0002V24.4722H174.355V37.0002H172.243ZM172.243 22.1202V19.4802H174.355V22.1202H172.243ZM180.822 37.0002V26.3442H176.502V24.4722H187.254V26.3442H182.934V37.0002H180.822ZM189.352 37.0002V24.4962H191.464V34.1682L198.472 24.4722H200.392V37.0002H198.28V27.5202L191.368 37.0002H189.352Z" fill="#333333"/>
</svg>
