<svg width="351" height="58" viewBox="0 0 351 58" fill="none" xmlns="http://www.w3.org/2000/svg">
<rect x="0.5" width="350" height="58" rx="29" fill="#1A7DF0"/>
<path d="M122.583 37.192C121.351 37.192 120.239 36.936 119.247 36.424C118.271 35.896 117.503 35.168 116.943 34.24L118.599 33.232C118.999 33.904 119.535 34.432 120.207 34.816C120.879 35.184 121.655 35.368 122.535 35.368C123.703 35.368 124.607 35.08 125.247 34.504C125.903 33.928 126.231 33.16 126.231 32.2C126.231 31.592 126.095 31.056 125.823 30.592C125.551 30.112 125.159 29.744 124.647 29.488C124.135 29.216 123.511 29.08 122.775 29.08H121.023V27.376H122.799C123.375 27.376 123.871 27.256 124.287 27.016C124.719 26.76 125.047 26.424 125.271 26.008C125.511 25.576 125.631 25.096 125.631 24.568C125.631 24.008 125.503 23.52 125.247 23.104C124.991 22.672 124.623 22.336 124.143 22.096C123.679 21.856 123.119 21.736 122.463 21.736C121.631 21.736 120.903 21.92 120.279 22.288C119.655 22.64 119.167 23.128 118.815 23.752L117.231 22.672C117.775 21.776 118.487 21.072 119.367 20.56C120.247 20.032 121.311 19.768 122.559 19.768C123.599 19.768 124.503 19.952 125.271 20.32C126.039 20.688 126.639 21.208 127.071 21.88C127.503 22.552 127.719 23.352 127.719 24.28C127.719 25.112 127.511 25.88 127.095 26.584C126.695 27.272 126.095 27.792 125.295 28.144C126.287 28.416 127.055 28.936 127.599 29.704C128.143 30.472 128.415 31.368 128.415 32.392C128.415 33.4 128.159 34.264 127.647 34.984C127.151 35.704 126.463 36.256 125.583 36.64C124.719 37.008 123.719 37.192 122.583 37.192ZM131.09 37V24.472H137.57C138.322 24.472 138.946 24.624 139.442 24.928C139.938 25.216 140.306 25.592 140.546 26.056C140.802 26.52 140.93 27.016 140.93 27.544C140.93 28.216 140.77 28.824 140.45 29.368C140.13 29.896 139.666 30.296 139.058 30.568C139.778 30.776 140.362 31.152 140.81 31.696C141.258 32.224 141.482 32.88 141.482 33.664C141.482 34.368 141.314 34.968 140.978 35.464C140.642 35.96 140.17 36.344 139.562 36.616C138.954 36.872 138.25 37 137.45 37H131.09ZM133.106 35.512H137.402C137.786 35.512 138.13 35.416 138.434 35.224C138.754 35.032 139.002 34.776 139.178 34.456C139.354 34.136 139.442 33.8 139.442 33.448C139.442 33.064 139.354 32.72 139.178 32.416C139.018 32.096 138.786 31.848 138.482 31.672C138.194 31.48 137.858 31.384 137.474 31.384H133.106V35.512ZM133.106 29.992H137.018C137.402 29.992 137.738 29.896 138.026 29.704C138.314 29.496 138.538 29.232 138.698 28.912C138.858 28.592 138.938 28.256 138.938 27.904C138.938 27.376 138.762 26.92 138.41 26.536C138.074 26.152 137.634 25.96 137.09 25.96H133.106V29.992ZM143.958 24.976L144.438 22.216H143.718V19.48H145.71V22.216L144.99 24.976H143.958ZM147.522 37L151.074 31.96C150.258 31.8 149.602 31.416 149.106 30.808C148.61 30.184 148.362 29.352 148.362 28.312C148.362 27.56 148.538 26.896 148.89 26.32C149.242 25.744 149.73 25.288 150.354 24.952C150.994 24.616 151.738 24.448 152.586 24.448H157.722V37H155.61V32.296H153.162L149.85 37H147.522ZM152.73 30.736H155.61V26.104H152.97C152.218 26.104 151.618 26.32 151.17 26.752C150.722 27.168 150.498 27.704 150.498 28.36C150.498 29.016 150.682 29.576 151.05 30.04C151.434 30.504 151.994 30.736 152.73 30.736ZM165.05 37.168C163.834 37.168 162.802 36.944 161.954 36.496C161.122 36.032 160.482 35.392 160.034 34.576L161.762 33.808C162.05 34.32 162.458 34.72 162.986 35.008C163.53 35.296 164.186 35.44 164.954 35.44C165.866 35.44 166.586 35.24 167.114 34.84C167.642 34.44 167.906 33.904 167.906 33.232C167.906 32.624 167.69 32.136 167.258 31.768C166.842 31.384 166.25 31.184 165.482 31.168H164.21V29.776H165.554C165.89 29.776 166.186 29.696 166.442 29.536C166.714 29.36 166.922 29.128 167.066 28.84C167.226 28.552 167.306 28.232 167.306 27.88C167.306 27.32 167.106 26.872 166.706 26.536C166.306 26.184 165.706 26.008 164.906 26.008C164.25 26.008 163.698 26.136 163.25 26.392C162.818 26.648 162.466 27.032 162.194 27.544L160.586 26.68C160.986 25.928 161.562 25.344 162.314 24.928C163.082 24.496 163.978 24.28 165.002 24.28C165.818 24.28 166.538 24.416 167.162 24.688C167.802 24.944 168.298 25.32 168.65 25.816C169.018 26.312 169.202 26.912 169.202 27.616C169.202 28.208 169.058 28.76 168.77 29.272C168.498 29.768 168.09 30.144 167.546 30.4C168.298 30.624 168.874 31.016 169.274 31.576C169.674 32.12 169.874 32.768 169.874 33.52C169.874 34.288 169.666 34.944 169.25 35.488C168.834 36.032 168.266 36.448 167.546 36.736C166.826 37.024 165.994 37.168 165.05 37.168ZM171.427 33.376C171.427 32.576 171.651 31.888 172.099 31.312C172.563 30.72 173.195 30.264 173.995 29.944C174.795 29.624 175.723 29.464 176.779 29.464C177.339 29.464 177.931 29.512 178.555 29.608C179.179 29.688 179.731 29.816 180.211 29.992V29.08C180.211 28.12 179.923 27.368 179.347 26.824C178.771 26.264 177.955 25.984 176.899 25.984C176.211 25.984 175.547 26.112 174.907 26.368C174.283 26.608 173.619 26.96 172.915 27.424L172.147 25.936C172.963 25.376 173.779 24.96 174.595 24.688C175.411 24.4 176.259 24.256 177.139 24.256C178.739 24.256 180.003 24.704 180.931 25.6C181.859 26.48 182.323 27.712 182.323 29.296V34.6C182.323 34.856 182.371 35.048 182.467 35.176C182.579 35.288 182.755 35.352 182.995 35.368V37C182.787 37.032 182.603 37.056 182.443 37.072C182.299 37.088 182.179 37.096 182.083 37.096C181.587 37.096 181.211 36.96 180.955 36.688C180.715 36.416 180.579 36.128 180.547 35.824L180.499 35.032C179.955 35.736 179.243 36.28 178.363 36.664C177.483 37.048 176.611 37.24 175.747 37.24C174.915 37.24 174.171 37.072 173.515 36.736C172.859 36.384 172.347 35.92 171.979 35.344C171.611 34.752 171.427 34.096 171.427 33.376ZM179.587 34.264C179.779 34.04 179.931 33.816 180.043 33.592C180.155 33.352 180.211 33.152 180.211 32.992V31.432C179.715 31.24 179.195 31.096 178.651 31C178.107 30.888 177.571 30.832 177.043 30.832C175.971 30.832 175.099 31.048 174.427 31.48C173.771 31.896 173.443 32.472 173.443 33.208C173.443 33.608 173.547 34 173.755 34.384C173.979 34.752 174.299 35.056 174.715 35.296C175.147 35.536 175.675 35.656 176.299 35.656C176.955 35.656 177.579 35.528 178.171 35.272C178.763 35 179.235 34.664 179.587 34.264ZM188.607 37V26.344H184.287V24.472H195.039V26.344H190.719V37H188.607ZM197.137 37V24.496H199.249V34.168L206.257 24.472H208.177V37H206.065V27.52L199.153 37H197.137ZM217.096 37.24C216.152 37.24 215.288 37.072 214.504 36.736C213.736 36.384 213.064 35.904 212.488 35.296C211.928 34.688 211.488 33.992 211.168 33.208C210.864 32.424 210.712 31.592 210.712 30.712C210.712 29.528 210.976 28.448 211.504 27.472C212.032 26.496 212.776 25.72 213.736 25.144C214.696 24.552 215.808 24.256 217.072 24.256C218.304 24.256 219.376 24.536 220.288 25.096C221.216 25.64 221.904 26.376 222.352 27.304L220.288 27.952C219.968 27.36 219.52 26.904 218.944 26.584C218.368 26.248 217.728 26.08 217.024 26.08C216.256 26.08 215.552 26.28 214.912 26.68C214.288 27.08 213.792 27.632 213.424 28.336C213.056 29.024 212.872 29.816 212.872 30.712C212.872 31.592 213.056 32.392 213.424 33.112C213.808 33.816 214.312 34.376 214.936 34.792C215.576 35.208 216.28 35.416 217.048 35.416C217.544 35.416 218.016 35.328 218.464 35.152C218.928 34.976 219.328 34.744 219.664 34.456C220.016 34.152 220.256 33.824 220.384 33.472L222.448 34.096C222.192 34.704 221.8 35.248 221.272 35.728C220.76 36.192 220.144 36.56 219.424 36.832C218.72 37.104 217.944 37.24 217.096 37.24ZM224.817 37V24.472H226.929V28.744H230.049C231.521 28.744 232.633 29.12 233.385 29.872C234.153 30.608 234.537 31.576 234.537 32.776C234.537 33.576 234.369 34.296 234.033 34.936C233.713 35.576 233.233 36.08 232.593 36.448C231.953 36.816 231.153 37 230.193 37H224.817ZM226.929 35.344H229.905C230.497 35.344 230.969 35.232 231.321 35.008C231.689 34.768 231.961 34.456 232.137 34.072C232.313 33.688 232.401 33.272 232.401 32.824C232.401 32.392 232.321 31.992 232.161 31.624C232.001 31.256 231.737 30.96 231.369 30.736C231.001 30.512 230.497 30.4 229.857 30.4H226.929V35.344Z" fill="white"/>
</svg>
