<svg width="311" height="20" viewBox="0 0 311 20" fill="none" xmlns="http://www.w3.org/2000/svg">
<path d="M3.36 15.1002V12.8202H4.48C4.82667 12.8202 5.08667 12.7469 5.26 12.6002C5.43333 12.4536 5.58667 12.2202 5.72 11.9002L6.04 11.2002L0.4 0.800243H3.44L7.26 8.40024L10.58 0.800243H13.48L7.82 13.2002C7.47333 13.9069 7.08 14.4002 6.64 14.6802C6.2 14.9602 5.61333 15.1002 4.88 15.1002H3.36ZM14.4934 15.0002V4.52024H17.1734V8.48024H18.0734L20.9134 4.52024H23.8334L20.1134 9.58024L24.2334 15.0002H21.1734L18.0334 10.8402H17.1734V15.0002H14.4934ZM32.1797 15.2002C31.3664 15.2002 30.6464 15.0202 30.0197 14.6602C29.4064 14.2869 28.9264 13.7869 28.5797 13.1602V19.2602H25.8997V4.52024H28.2397V6.32024C28.6397 5.70691 29.1464 5.22691 29.7597 4.88024C30.373 4.52024 31.073 4.34024 31.8597 4.34024C32.5664 4.34024 33.213 4.48024 33.7997 4.76024C34.3997 5.04024 34.9197 5.43358 35.3597 5.94024C35.7997 6.43358 36.1397 7.00691 36.3797 7.66024C36.633 8.30024 36.7597 8.99358 36.7597 9.74024C36.7597 10.7536 36.5597 11.6736 36.1597 12.5002C35.773 13.3269 35.233 13.9869 34.5397 14.4802C33.8597 14.9602 33.073 15.2002 32.1797 15.2002ZM31.2797 12.9202C31.693 12.9202 32.0664 12.8336 32.3997 12.6602C32.733 12.4869 33.0197 12.2536 33.2597 11.9602C33.513 11.6536 33.6997 11.3136 33.8197 10.9402C33.953 10.5536 34.0197 10.1536 34.0197 9.74024C34.0197 9.30024 33.9464 8.89358 33.7997 8.52024C33.6664 8.14691 33.4664 7.82024 33.1997 7.54024C32.933 7.24691 32.6197 7.02024 32.2597 6.86024C31.913 6.70024 31.533 6.62024 31.1197 6.62024C30.8664 6.62024 30.6064 6.66691 30.3397 6.76024C30.0864 6.84024 29.8397 6.96024 29.5997 7.12024C29.3597 7.28024 29.1464 7.46691 28.9597 7.68024C28.7864 7.89358 28.6597 8.12691 28.5797 8.38024V10.8402C28.7397 11.2269 28.953 11.5802 29.2197 11.9002C29.4997 12.2202 29.8197 12.4736 30.1797 12.6602C30.5397 12.8336 30.9064 12.9202 31.2797 12.9202ZM37.8555 11.9002C37.8555 11.2202 38.0421 10.6269 38.4155 10.1202C38.8021 9.60024 39.3355 9.20024 40.0155 8.92024C40.6955 8.64024 41.4755 8.50024 42.3555 8.50024C42.7955 8.50024 43.2421 8.53358 43.6955 8.60024C44.1488 8.66691 44.5421 8.77358 44.8755 8.92024V8.36024C44.8755 7.69358 44.6755 7.18024 44.2755 6.82024C43.8888 6.46024 43.3088 6.28024 42.5355 6.28024C41.9621 6.28024 41.4155 6.38024 40.8955 6.58024C40.3755 6.78024 39.8288 7.07358 39.2555 7.46024L38.3955 5.70024C39.0888 5.24691 39.7955 4.90691 40.5155 4.68024C41.2488 4.45358 42.0155 4.34024 42.8155 4.34024C44.3088 4.34024 45.4688 4.71358 46.2955 5.46024C47.1355 6.20691 47.5555 7.27358 47.5555 8.66024V12.0002C47.5555 12.2802 47.6021 12.4802 47.6955 12.6002C47.8021 12.7202 47.9688 12.7936 48.1955 12.8202V15.0002C47.9555 15.0402 47.7355 15.0736 47.5355 15.1002C47.3488 15.1269 47.1888 15.1402 47.0555 15.1402C46.5221 15.1402 46.1155 15.0202 45.8355 14.7802C45.5688 14.5402 45.4021 14.2469 45.3355 13.9002L45.2755 13.3602C44.8221 13.9469 44.2555 14.4002 43.5755 14.7202C42.8955 15.0402 42.2021 15.2002 41.4955 15.2002C40.8021 15.2002 40.1755 15.0602 39.6155 14.7802C39.0688 14.4869 38.6355 14.0936 38.3155 13.6002C38.0088 13.0936 37.8555 12.5269 37.8555 11.9002ZM44.3755 12.4402C44.5221 12.2802 44.6421 12.1202 44.7355 11.9602C44.8288 11.8002 44.8755 11.6536 44.8755 11.5202V10.4602C44.5555 10.3269 44.2088 10.2269 43.8355 10.1602C43.4621 10.0802 43.1088 10.0402 42.7755 10.0402C42.0821 10.0402 41.5088 10.1936 41.0555 10.5002C40.6155 10.7936 40.3955 11.1869 40.3955 11.6802C40.3955 11.9469 40.4688 12.2002 40.6155 12.4402C40.7621 12.6802 40.9755 12.8736 41.2555 13.0202C41.5355 13.1669 41.8688 13.2402 42.2555 13.2402C42.6555 13.2402 43.0488 13.1669 43.4355 13.0202C43.8221 12.8602 44.1355 12.6669 44.3755 12.4402ZM50.0598 15.0002V4.52024H52.7398V15.0002H50.0598ZM48.3598 2.90024V0.520243H50.5798V2.90024H48.3598ZM52.1998 2.90024V0.520243H54.4198V2.90024H52.1998ZM55.1575 15.0002V4.52024H57.8375V8.52024H62.0775V4.52024H64.7575V15.0002H62.0775V10.7602H57.8375V15.0002H55.1575ZM72.0883 15.2002C71.2349 15.2002 70.4683 15.0602 69.7883 14.7802C69.1083 14.4869 68.5283 14.0869 68.0483 13.5802C67.5683 13.0602 67.1949 12.4736 66.9283 11.8202C66.6749 11.1669 66.5483 10.4802 66.5483 9.76024C66.5483 8.77358 66.7683 7.87358 67.2083 7.06024C67.6616 6.23358 68.3016 5.57358 69.1283 5.08024C69.9549 4.58691 70.9349 4.34024 72.0683 4.34024C73.2016 4.34024 74.1749 4.58691 74.9883 5.08024C75.8016 5.57358 76.4083 6.22024 76.8083 7.02024L74.1883 7.82024C73.9616 7.43358 73.6616 7.14024 73.2883 6.94024C72.9149 6.72691 72.5016 6.62024 72.0483 6.62024C71.5416 6.62024 71.0749 6.75358 70.6483 7.02024C70.2349 7.27358 69.9083 7.64024 69.6683 8.12024C69.4283 8.58691 69.3083 9.13358 69.3083 9.76024C69.3083 10.3736 69.4283 10.9202 69.6683 11.4002C69.9216 11.8669 70.2549 12.2402 70.6683 12.5202C71.0816 12.7869 71.5416 12.9202 72.0483 12.9202C72.3683 12.9202 72.6683 12.8669 72.9483 12.7602C73.2416 12.6536 73.5016 12.5069 73.7283 12.3202C73.9549 12.1336 74.1216 11.9202 74.2283 11.6802L76.8483 12.4802C76.6083 13.0002 76.2549 13.4669 75.7883 13.8802C75.3349 14.2936 74.7949 14.6202 74.1683 14.8602C73.5549 15.0869 72.8616 15.2002 72.0883 15.2002ZM78.4973 15.0002V4.52024H81.1773V7.82024H83.5573C84.8107 7.82024 85.7707 8.14024 86.4373 8.78024C87.104 9.42024 87.4373 10.2669 87.4373 11.3202C87.4373 12.0269 87.2973 12.6602 87.0173 13.2202C86.7373 13.7802 86.324 14.2202 85.7773 14.5402C85.2307 14.8469 84.5507 15.0002 83.7373 15.0002H78.4973ZM81.1773 12.9602H83.3173C83.6773 12.9602 83.9707 12.8869 84.1973 12.7402C84.4373 12.5936 84.6107 12.4002 84.7173 12.1602C84.8373 11.9202 84.8973 11.6469 84.8973 11.3402C84.8973 11.0469 84.844 10.7869 84.7373 10.5602C84.6307 10.3202 84.4573 10.1336 84.2173 10.0002C83.9907 9.85358 83.684 9.78024 83.2973 9.78024H81.1773V12.9602ZM89.1223 15.0002V4.52024H91.8023V8.48024H92.7023L95.5423 4.52024H98.4623L94.7423 9.58024L98.8623 15.0002H95.8023L92.6623 10.8402H91.8023V15.0002H89.1223ZM100.529 15.0002V4.54024H103.209V11.4202L107.909 4.52024H110.349V15.0002H107.669V8.28024L103.029 15.0002H100.529ZM112.794 15.0002V4.54024H115.474V11.4202L120.174 4.52024H122.614V15.0002H119.934V8.28024L115.294 15.0002H112.794ZM117.714 3.54024C116.688 3.54024 115.881 3.28024 115.294 2.76024C114.708 2.22691 114.414 1.54691 114.414 0.720243H116.074C116.074 1.12024 116.208 1.45358 116.474 1.72024C116.741 1.98691 117.154 2.12024 117.714 2.12024C118.274 2.12024 118.674 1.99358 118.914 1.74024C119.168 1.48691 119.321 1.14691 119.374 0.720243H121.034C121.034 1.54691 120.741 2.22691 120.154 2.76024C119.568 3.28024 118.754 3.54024 117.714 3.54024ZM140.705 17.7002V15.0002H130.125V0.800243H132.885V12.5802H138.505V0.800243H141.245V12.5802H143.125V17.7002H140.705ZM149.842 15.2002C149.002 15.2002 148.242 15.0602 147.562 14.7802C146.882 14.4869 146.302 14.0936 145.822 13.6002C145.342 13.0936 144.968 12.5202 144.702 11.8802C144.448 11.2269 144.322 10.5402 144.322 9.82024C144.322 8.82024 144.542 7.90691 144.982 7.08024C145.435 6.25358 146.075 5.59358 146.902 5.10024C147.742 4.59358 148.728 4.34024 149.862 4.34024C151.008 4.34024 151.988 4.59358 152.802 5.10024C153.615 5.59358 154.235 6.25358 154.662 7.08024C155.102 7.89358 155.322 8.77358 155.322 9.72024C155.322 9.88024 155.315 10.0469 155.302 10.2202C155.288 10.3802 155.275 10.5136 155.262 10.6202H147.162C147.215 11.1536 147.368 11.6202 147.622 12.0202C147.888 12.4202 148.222 12.7269 148.622 12.9402C149.035 13.1402 149.475 13.2402 149.942 13.2402C150.475 13.2402 150.975 13.1136 151.442 12.8602C151.922 12.5936 152.248 12.2469 152.422 11.8202L154.722 12.4602C154.468 12.9936 154.102 13.4669 153.622 13.8802C153.155 14.2936 152.602 14.6202 151.962 14.8602C151.322 15.0869 150.615 15.2002 149.842 15.2002ZM147.102 8.92024H152.582C152.528 8.38691 152.375 7.92691 152.122 7.54024C151.882 7.14024 151.562 6.83358 151.162 6.62024C150.762 6.39358 150.315 6.28024 149.822 6.28024C149.342 6.28024 148.902 6.39358 148.502 6.62024C148.115 6.83358 147.795 7.14024 147.542 7.54024C147.302 7.92691 147.155 8.38691 147.102 8.92024ZM156.954 15.0002V4.52024H159.634V8.52024H163.874V4.52024H166.554V15.0002H163.874V10.7602H159.634V15.0002H156.954ZM171.425 15.0002V6.86024H168.105V4.52024H177.445V6.86024H174.105V15.0002H171.425ZM185.227 15.2002C184.413 15.2002 183.693 15.0202 183.067 14.6602C182.453 14.2869 181.973 13.7869 181.627 13.1602V19.2602H178.947V4.52024H181.287V6.32024C181.687 5.70691 182.193 5.22691 182.807 4.88024C183.42 4.52024 184.12 4.34024 184.907 4.34024C185.613 4.34024 186.26 4.48024 186.847 4.76024C187.447 5.04024 187.967 5.43358 188.407 5.94024C188.847 6.43358 189.187 7.00691 189.427 7.66024C189.68 8.30024 189.807 8.99358 189.807 9.74024C189.807 10.7536 189.607 11.6736 189.207 12.5002C188.82 13.3269 188.28 13.9869 187.587 14.4802C186.907 14.9602 186.12 15.2002 185.227 15.2002ZM184.327 12.9202C184.74 12.9202 185.113 12.8336 185.447 12.6602C185.78 12.4869 186.067 12.2536 186.307 11.9602C186.56 11.6536 186.747 11.3136 186.867 10.9402C187 10.5536 187.067 10.1536 187.067 9.74024C187.067 9.30024 186.993 8.89358 186.847 8.52024C186.713 8.14691 186.513 7.82024 186.247 7.54024C185.98 7.24691 185.667 7.02024 185.307 6.86024C184.96 6.70024 184.58 6.62024 184.167 6.62024C183.913 6.62024 183.653 6.66691 183.387 6.76024C183.133 6.84024 182.887 6.96024 182.647 7.12024C182.407 7.28024 182.193 7.46691 182.007 7.68024C181.833 7.89358 181.707 8.12691 181.627 8.38024V10.8402C181.787 11.2269 182 11.5802 182.267 11.9002C182.547 12.2202 182.867 12.4736 183.227 12.6602C183.587 12.8336 183.953 12.9202 184.327 12.9202ZM197.44 19.5202C197.16 19.5202 196.873 19.4869 196.58 19.4202C196.3 19.3536 195.973 19.2536 195.6 19.1202L196.12 17.0002C196.32 17.0936 196.507 17.1602 196.68 17.2002C196.867 17.2402 197.033 17.2602 197.18 17.2602C197.513 17.2602 197.807 17.1402 198.06 16.9002C198.327 16.6602 198.54 16.2936 198.7 15.8002L199.02 14.9402L194.78 4.52024H197.56L200.38 12.2602L202.86 4.52024H205.42L201.14 16.5002C200.913 17.1402 200.613 17.6802 200.24 18.1202C199.867 18.5736 199.44 18.9202 198.96 19.1602C198.48 19.4002 197.973 19.5202 197.44 19.5202ZM211.473 15.0002V0.800243H221.713V3.18024H214.213V6.60024H218.073C219.66 6.60024 220.853 6.97358 221.653 7.72024C222.453 8.46691 222.853 9.46691 222.853 10.7202C222.853 11.5602 222.68 12.3002 222.333 12.9402C221.986 13.5802 221.473 14.0869 220.793 14.4602C220.113 14.8202 219.253 15.0002 218.213 15.0002H211.473ZM214.213 12.6202H217.833C218.366 12.6202 218.793 12.5269 219.113 12.3402C219.433 12.1402 219.666 11.8936 219.813 11.6002C219.96 11.2936 220.033 10.9736 220.033 10.6402C220.033 10.3069 219.966 10.0002 219.833 9.72024C219.713 9.42691 219.493 9.19358 219.173 9.02024C218.853 8.83358 218.393 8.74024 217.793 8.74024H214.213V12.6202ZM223.813 11.9002C223.813 11.2202 223.999 10.6269 224.373 10.1202C224.759 9.60024 225.293 9.20024 225.973 8.92024C226.653 8.64024 227.433 8.50024 228.312 8.50024C228.753 8.50024 229.199 8.53358 229.653 8.60024C230.106 8.66691 230.499 8.77358 230.833 8.92024V8.36024C230.833 7.69358 230.633 7.18024 230.233 6.82024C229.846 6.46024 229.266 6.28024 228.493 6.28024C227.919 6.28024 227.373 6.38024 226.853 6.58024C226.333 6.78024 225.786 7.07358 225.213 7.46024L224.353 5.70024C225.046 5.24691 225.753 4.90691 226.473 4.68024C227.206 4.45358 227.973 4.34024 228.773 4.34024C230.266 4.34024 231.426 4.71358 232.253 5.46024C233.093 6.20691 233.513 7.27358 233.513 8.66024V12.0002C233.513 12.2802 233.559 12.4802 233.653 12.6002C233.759 12.7202 233.926 12.7936 234.153 12.8202V15.0002C233.913 15.0402 233.693 15.0736 233.493 15.1002C233.306 15.1269 233.146 15.1402 233.013 15.1402C232.479 15.1402 232.073 15.0202 231.793 14.7802C231.526 14.5402 231.359 14.2469 231.293 13.9002L231.233 13.3602C230.779 13.9469 230.213 14.4002 229.533 14.7202C228.853 15.0402 228.159 15.2002 227.453 15.2002C226.759 15.2002 226.133 15.0602 225.573 14.7802C225.026 14.4869 224.593 14.0936 224.273 13.6002C223.966 13.0936 223.813 12.5269 223.813 11.9002ZM230.333 12.4402C230.479 12.2802 230.599 12.1202 230.693 11.9602C230.786 11.8002 230.833 11.6536 230.833 11.5202V10.4602C230.513 10.3269 230.166 10.2269 229.793 10.1602C229.419 10.0802 229.066 10.0402 228.733 10.0402C228.039 10.0402 227.466 10.1936 227.013 10.5002C226.573 10.7936 226.353 11.1869 226.353 11.6802C226.353 11.9469 226.426 12.2002 226.573 12.4402C226.719 12.6802 226.933 12.8736 227.213 13.0202C227.493 13.1669 227.826 13.2402 228.213 13.2402C228.613 13.2402 229.006 13.1669 229.393 13.0202C229.779 12.8602 230.093 12.6669 230.333 12.4402ZM242.297 15.2002C241.484 15.2002 240.764 15.0202 240.137 14.6602C239.524 14.2869 239.044 13.7869 238.697 13.1602V19.2602H236.017V4.52024H238.357V6.32024C238.757 5.70691 239.264 5.22691 239.877 4.88024C240.49 4.52024 241.19 4.34024 241.977 4.34024C242.684 4.34024 243.33 4.48024 243.917 4.76024C244.517 5.04024 245.037 5.43358 245.477 5.94024C245.917 6.43358 246.257 7.00691 246.497 7.66024C246.75 8.30024 246.877 8.99358 246.877 9.74024C246.877 10.7536 246.677 11.6736 246.277 12.5002C245.89 13.3269 245.35 13.9869 244.657 14.4802C243.977 14.9602 243.19 15.2002 242.297 15.2002ZM241.397 12.9202C241.81 12.9202 242.184 12.8336 242.517 12.6602C242.85 12.4869 243.137 12.2536 243.377 11.9602C243.63 11.6536 243.817 11.3136 243.937 10.9402C244.07 10.5536 244.137 10.1536 244.137 9.74024C244.137 9.30024 244.064 8.89358 243.917 8.52024C243.784 8.14691 243.584 7.82024 243.317 7.54024C243.05 7.24691 242.737 7.02024 242.377 6.86024C242.03 6.70024 241.65 6.62024 241.237 6.62024C240.984 6.62024 240.724 6.66691 240.457 6.76024C240.204 6.84024 239.957 6.96024 239.717 7.12024C239.477 7.28024 239.264 7.46691 239.077 7.68024C238.904 7.89358 238.777 8.12691 238.697 8.38024V10.8402C238.857 11.2269 239.07 11.5802 239.337 11.9002C239.617 12.2202 239.937 12.4736 240.297 12.6602C240.657 12.8336 241.024 12.9202 241.397 12.9202ZM253.573 15.2002C252.719 15.2002 251.953 15.0602 251.273 14.7802C250.593 14.4869 250.013 14.0869 249.533 13.5802C249.053 13.0602 248.679 12.4736 248.413 11.8202C248.159 11.1669 248.033 10.4802 248.033 9.76024C248.033 8.77358 248.253 7.87358 248.693 7.06024C249.146 6.23358 249.786 5.57358 250.613 5.08024C251.439 4.58691 252.419 4.34024 253.553 4.34024C254.686 4.34024 255.659 4.58691 256.473 5.08024C257.286 5.57358 257.893 6.22024 258.293 7.02024L255.673 7.82024C255.446 7.43358 255.146 7.14024 254.773 6.94024C254.399 6.72691 253.986 6.62024 253.533 6.62024C253.026 6.62024 252.559 6.75358 252.133 7.02024C251.719 7.27358 251.393 7.64024 251.153 8.12024C250.913 8.58691 250.793 9.13358 250.793 9.76024C250.793 10.3736 250.913 10.9202 251.153 11.4002C251.406 11.8669 251.739 12.2402 252.153 12.5202C252.566 12.7869 253.026 12.9202 253.533 12.9202C253.853 12.9202 254.153 12.8669 254.433 12.7602C254.726 12.6536 254.986 12.5069 255.213 12.3202C255.439 12.1336 255.606 11.9202 255.713 11.6802L258.333 12.4802C258.093 13.0002 257.739 13.4669 257.273 13.8802C256.819 14.2936 256.279 14.6202 255.653 14.8602C255.039 15.0869 254.346 15.2002 253.573 15.2002ZM264.744 15.2002C263.904 15.2002 263.144 15.0602 262.464 14.7802C261.784 14.4869 261.204 14.0936 260.724 13.6002C260.244 13.0936 259.871 12.5202 259.604 11.8802C259.351 11.2269 259.224 10.5402 259.224 9.82024C259.224 8.82024 259.444 7.90691 259.884 7.08024C260.337 6.25358 260.977 5.59358 261.804 5.10024C262.644 4.59358 263.631 4.34024 264.764 4.34024C265.911 4.34024 266.891 4.59358 267.704 5.10024C268.517 5.59358 269.137 6.25358 269.564 7.08024C270.004 7.89358 270.224 8.77358 270.224 9.72024C270.224 9.88024 270.217 10.0469 270.204 10.2202C270.191 10.3802 270.177 10.5136 270.164 10.6202H262.064C262.117 11.1536 262.271 11.6202 262.524 12.0202C262.791 12.4202 263.124 12.7269 263.524 12.9402C263.937 13.1402 264.377 13.2402 264.844 13.2402C265.377 13.2402 265.877 13.1136 266.344 12.8602C266.824 12.5936 267.151 12.2469 267.324 11.8202L269.624 12.4602C269.371 12.9936 269.004 13.4669 268.524 13.8802C268.057 14.2936 267.504 14.6202 266.864 14.8602C266.224 15.0869 265.517 15.2002 264.744 15.2002ZM262.004 8.92024H267.484C267.431 8.38691 267.277 7.92691 267.024 7.54024C266.784 7.14024 266.464 6.83358 266.064 6.62024C265.664 6.39358 265.217 6.28024 264.724 6.28024C264.244 6.28024 263.804 6.39358 263.404 6.62024C263.017 6.83358 262.697 7.14024 262.444 7.54024C262.204 7.92691 262.057 8.38691 262.004 8.92024ZM271.097 15.1402V12.7602C271.417 12.7469 271.703 12.6669 271.957 12.5202C272.21 12.3736 272.43 12.1269 272.617 11.7802C272.817 11.4202 272.97 10.9202 273.077 10.2802C273.197 9.64024 273.277 8.82024 273.317 7.82024L273.457 4.52024H281.317V15.0002H278.637V6.86024H275.817L275.777 8.08024C275.723 9.45358 275.59 10.5936 275.377 11.5002C275.163 12.4069 274.863 13.1269 274.477 13.6602C274.103 14.1802 273.637 14.5536 273.077 14.7802C272.517 15.0069 271.857 15.1269 271.097 15.1402ZM288.591 15.2002C287.738 15.2002 286.971 15.0602 286.291 14.7802C285.611 14.4869 285.031 14.0869 284.551 13.5802C284.085 13.0736 283.725 12.4936 283.471 11.8402C283.218 11.1869 283.091 10.5002 283.091 9.78024C283.091 9.04691 283.218 8.35358 283.471 7.70024C283.725 7.04691 284.085 6.46691 284.551 5.96024C285.031 5.45358 285.611 5.06024 286.291 4.78024C286.971 4.48691 287.738 4.34024 288.591 4.34024C289.445 4.34024 290.205 4.48691 290.871 4.78024C291.551 5.06024 292.131 5.45358 292.611 5.96024C293.091 6.46691 293.451 7.04691 293.691 7.70024C293.945 8.35358 294.071 9.04691 294.071 9.78024C294.071 10.5002 293.945 11.1869 293.691 11.8402C293.451 12.4936 293.091 13.0736 292.611 13.5802C292.145 14.0869 291.571 14.4869 290.891 14.7802C290.211 15.0602 289.445 15.2002 288.591 15.2002ZM285.851 9.78024C285.851 10.3936 285.971 10.9402 286.211 11.4202C286.451 11.8869 286.778 12.2536 287.191 12.5202C287.605 12.7869 288.071 12.9202 288.591 12.9202C289.098 12.9202 289.558 12.7869 289.971 12.5202C290.385 12.2402 290.711 11.8669 290.951 11.4002C291.205 10.9202 291.331 10.3736 291.331 9.76024C291.331 9.16024 291.205 8.62024 290.951 8.14024C290.711 7.66024 290.385 7.28691 289.971 7.02024C289.558 6.75358 289.098 6.62024 288.591 6.62024C288.071 6.62024 287.605 6.76024 287.191 7.04024C286.778 7.30691 286.451 7.68024 286.211 8.16024C285.971 8.62691 285.851 9.16691 285.851 9.78024ZM295.88 15.0002V4.52024H298.56V8.52024H302.8V4.52024H305.48V15.0002H302.8V10.7602H298.56V15.0002H295.88ZM307.931 15.0002V4.52024H310.611V15.0002H307.931ZM307.931 3.06024V0.400244H310.611V3.06024H307.931Z" fill="white"/>
</svg>
