<svg width="346" height="168" viewBox="0 0 346 168" fill="none" xmlns="http://www.w3.org/2000/svg">
<rect x="0.5" y="0.000244141" width="345" height="168" rx="30" fill="#1A7DF0"/>
<path d="M18.36 148.1V145.82H19.48C19.8267 145.82 20.0867 145.747 20.26 145.6C20.4333 145.454 20.5867 145.22 20.72 144.9L21.04 144.2L15.4 133.8H18.44L22.26 141.4L25.58 133.8H28.48L22.82 146.2C22.4733 146.907 22.08 147.4 21.64 147.68C21.2 147.96 20.6133 148.1 19.88 148.1H18.36ZM29.4934 148V137.52H32.1734V141.48H33.0734L35.9134 137.52H38.8334L35.1134 142.58L39.2334 148H36.1734L33.0334 143.84H32.1734V148H29.4934ZM47.1797 148.2C46.3664 148.2 45.6464 148.02 45.0197 147.66C44.4064 147.287 43.9264 146.787 43.5797 146.16V152.26H40.8997V137.52H43.2397V139.32C43.6397 138.707 44.1464 138.227 44.7597 137.88C45.373 137.52 46.073 137.34 46.8597 137.34C47.5664 137.34 48.213 137.48 48.7997 137.76C49.3997 138.04 49.9197 138.434 50.3597 138.94C50.7997 139.434 51.1397 140.007 51.3797 140.66C51.633 141.3 51.7597 141.994 51.7597 142.74C51.7597 143.754 51.5597 144.674 51.1597 145.5C50.773 146.327 50.233 146.987 49.5397 147.48C48.8597 147.96 48.073 148.2 47.1797 148.2ZM46.2797 145.92C46.693 145.92 47.0664 145.834 47.3997 145.66C47.733 145.487 48.0197 145.254 48.2597 144.96C48.513 144.654 48.6997 144.314 48.8197 143.94C48.953 143.554 49.0197 143.154 49.0197 142.74C49.0197 142.3 48.9464 141.894 48.7997 141.52C48.6664 141.147 48.4664 140.82 48.1997 140.54C47.933 140.247 47.6197 140.02 47.2597 139.86C46.913 139.7 46.533 139.62 46.1197 139.62C45.8664 139.62 45.6064 139.667 45.3397 139.76C45.0864 139.84 44.8397 139.96 44.5997 140.12C44.3597 140.28 44.1464 140.467 43.9597 140.68C43.7864 140.894 43.6597 141.127 43.5797 141.38V143.84C43.7397 144.227 43.953 144.58 44.2197 144.9C44.4997 145.22 44.8197 145.474 45.1797 145.66C45.5397 145.834 45.9064 145.92 46.2797 145.92ZM52.8555 144.9C52.8555 144.22 53.0421 143.627 53.4155 143.12C53.8021 142.6 54.3355 142.2 55.0155 141.92C55.6955 141.64 56.4755 141.5 57.3555 141.5C57.7955 141.5 58.2421 141.534 58.6955 141.6C59.1488 141.667 59.5421 141.774 59.8755 141.92V141.36C59.8755 140.694 59.6755 140.18 59.2755 139.82C58.8888 139.46 58.3088 139.28 57.5355 139.28C56.9621 139.28 56.4155 139.38 55.8955 139.58C55.3755 139.78 54.8288 140.074 54.2555 140.46L53.3955 138.7C54.0888 138.247 54.7955 137.907 55.5155 137.68C56.2488 137.454 57.0155 137.34 57.8155 137.34C59.3088 137.34 60.4688 137.714 61.2955 138.46C62.1355 139.207 62.5555 140.274 62.5555 141.66V145C62.5555 145.28 62.6021 145.48 62.6955 145.6C62.8021 145.72 62.9688 145.794 63.1955 145.82V148C62.9555 148.04 62.7355 148.074 62.5355 148.1C62.3488 148.127 62.1888 148.14 62.0555 148.14C61.5221 148.14 61.1155 148.02 60.8355 147.78C60.5688 147.54 60.4021 147.247 60.3355 146.9L60.2755 146.36C59.8221 146.947 59.2555 147.4 58.5755 147.72C57.8955 148.04 57.2021 148.2 56.4955 148.2C55.8021 148.2 55.1755 148.06 54.6155 147.78C54.0688 147.487 53.6355 147.094 53.3155 146.6C53.0088 146.094 52.8555 145.527 52.8555 144.9ZM59.3755 145.44C59.5221 145.28 59.6421 145.12 59.7355 144.96C59.8288 144.8 59.8755 144.654 59.8755 144.52V143.46C59.5555 143.327 59.2088 143.227 58.8355 143.16C58.4621 143.08 58.1088 143.04 57.7755 143.04C57.0821 143.04 56.5088 143.194 56.0555 143.5C55.6155 143.794 55.3955 144.187 55.3955 144.68C55.3955 144.947 55.4688 145.2 55.6155 145.44C55.7621 145.68 55.9755 145.874 56.2555 146.02C56.5355 146.167 56.8688 146.24 57.2555 146.24C57.6555 146.24 58.0488 146.167 58.4355 146.02C58.8221 145.86 59.1355 145.667 59.3755 145.44ZM65.0598 148V137.52H67.7398V148H65.0598ZM63.3598 135.9V133.52H65.5798V135.9H63.3598ZM67.1998 135.9V133.52H69.4198V135.9H67.1998ZM70.1575 148V137.52H72.8375V141.52H77.0775V137.52H79.7575V148H77.0775V143.76H72.8375V148H70.1575ZM87.0883 148.2C86.2349 148.2 85.4683 148.06 84.7883 147.78C84.1083 147.487 83.5283 147.087 83.0483 146.58C82.5683 146.06 82.1949 145.474 81.9283 144.82C81.6749 144.167 81.5483 143.48 81.5483 142.76C81.5483 141.774 81.7683 140.874 82.2083 140.06C82.6616 139.234 83.3016 138.574 84.1283 138.08C84.9549 137.587 85.9349 137.34 87.0683 137.34C88.2016 137.34 89.1749 137.587 89.9883 138.08C90.8016 138.574 91.4083 139.22 91.8083 140.02L89.1883 140.82C88.9616 140.434 88.6616 140.14 88.2883 139.94C87.9149 139.727 87.5016 139.62 87.0483 139.62C86.5416 139.62 86.0749 139.754 85.6483 140.02C85.2349 140.274 84.9083 140.64 84.6683 141.12C84.4283 141.587 84.3083 142.134 84.3083 142.76C84.3083 143.374 84.4283 143.92 84.6683 144.4C84.9216 144.867 85.2549 145.24 85.6683 145.52C86.0816 145.787 86.5416 145.92 87.0483 145.92C87.3683 145.92 87.6683 145.867 87.9483 145.76C88.2416 145.654 88.5016 145.507 88.7283 145.32C88.9549 145.134 89.1216 144.92 89.2283 144.68L91.8483 145.48C91.6083 146 91.2549 146.467 90.7883 146.88C90.3349 147.294 89.7949 147.62 89.1683 147.86C88.5549 148.087 87.8616 148.2 87.0883 148.2ZM93.4973 148V137.52H96.1773V140.82H98.5573C99.8107 140.82 100.771 141.14 101.437 141.78C102.104 142.42 102.437 143.267 102.437 144.32C102.437 145.027 102.297 145.66 102.017 146.22C101.737 146.78 101.324 147.22 100.777 147.54C100.231 147.847 99.5507 148 98.7373 148H93.4973ZM96.1773 145.96H98.3173C98.6773 145.96 98.9707 145.887 99.1973 145.74C99.4373 145.594 99.6107 145.4 99.7173 145.16C99.8373 144.92 99.8973 144.647 99.8973 144.34C99.8973 144.047 99.844 143.787 99.7373 143.56C99.6307 143.32 99.4573 143.134 99.2173 143C98.9907 142.854 98.684 142.78 98.2973 142.78H96.1773V145.96ZM104.122 148V137.52H106.802V141.48H107.702L110.542 137.52H113.462L109.742 142.58L113.862 148H110.802L107.662 143.84H106.802V148H104.122ZM115.529 148V137.54H118.209V144.42L122.909 137.52H125.349V148H122.669V141.28L118.029 148H115.529ZM127.794 148V137.54H130.474V144.42L135.174 137.52H137.614V148H134.934V141.28L130.294 148H127.794ZM132.714 136.54C131.688 136.54 130.881 136.28 130.294 135.76C129.708 135.227 129.414 134.547 129.414 133.72H131.074C131.074 134.12 131.208 134.454 131.474 134.72C131.741 134.987 132.154 135.12 132.714 135.12C133.274 135.12 133.674 134.994 133.914 134.74C134.168 134.487 134.321 134.147 134.374 133.72H136.034C136.034 134.547 135.741 135.227 135.154 135.76C134.568 136.28 133.754 136.54 132.714 136.54ZM155.705 150.7V148H145.125V133.8H147.885V145.58H153.505V133.8H156.245V145.58H158.125V150.7H155.705ZM164.842 148.2C164.002 148.2 163.242 148.06 162.562 147.78C161.882 147.487 161.302 147.094 160.822 146.6C160.342 146.094 159.968 145.52 159.702 144.88C159.448 144.227 159.322 143.54 159.322 142.82C159.322 141.82 159.542 140.907 159.982 140.08C160.435 139.254 161.075 138.594 161.902 138.1C162.742 137.594 163.728 137.34 164.862 137.34C166.008 137.34 166.988 137.594 167.802 138.1C168.615 138.594 169.235 139.254 169.662 140.08C170.102 140.894 170.322 141.774 170.322 142.72C170.322 142.88 170.315 143.047 170.302 143.22C170.288 143.38 170.275 143.514 170.262 143.62H162.162C162.215 144.154 162.368 144.62 162.622 145.02C162.888 145.42 163.222 145.727 163.622 145.94C164.035 146.14 164.475 146.24 164.942 146.24C165.475 146.24 165.975 146.114 166.442 145.86C166.922 145.594 167.248 145.247 167.422 144.82L169.722 145.46C169.468 145.994 169.102 146.467 168.622 146.88C168.155 147.294 167.602 147.62 166.962 147.86C166.322 148.087 165.615 148.2 164.842 148.2ZM162.102 141.92H167.582C167.528 141.387 167.375 140.927 167.122 140.54C166.882 140.14 166.562 139.834 166.162 139.62C165.762 139.394 165.315 139.28 164.822 139.28C164.342 139.28 163.902 139.394 163.502 139.62C163.115 139.834 162.795 140.14 162.542 140.54C162.302 140.927 162.155 141.387 162.102 141.92ZM171.954 148V137.52H174.634V141.52H178.874V137.52H181.554V148H178.874V143.76H174.634V148H171.954ZM186.425 148V139.86H183.105V137.52H192.445V139.86H189.105V148H186.425ZM200.227 148.2C199.413 148.2 198.693 148.02 198.067 147.66C197.453 147.287 196.973 146.787 196.627 146.16V152.26H193.947V137.52H196.287V139.32C196.687 138.707 197.193 138.227 197.807 137.88C198.42 137.52 199.12 137.34 199.907 137.34C200.613 137.34 201.26 137.48 201.847 137.76C202.447 138.04 202.967 138.434 203.407 138.94C203.847 139.434 204.187 140.007 204.427 140.66C204.68 141.3 204.807 141.994 204.807 142.74C204.807 143.754 204.607 144.674 204.207 145.5C203.82 146.327 203.28 146.987 202.587 147.48C201.907 147.96 201.12 148.2 200.227 148.2ZM199.327 145.92C199.74 145.92 200.113 145.834 200.447 145.66C200.78 145.487 201.067 145.254 201.307 144.96C201.56 144.654 201.747 144.314 201.867 143.94C202 143.554 202.067 143.154 202.067 142.74C202.067 142.3 201.993 141.894 201.847 141.52C201.713 141.147 201.513 140.82 201.247 140.54C200.98 140.247 200.667 140.02 200.307 139.86C199.96 139.7 199.58 139.62 199.167 139.62C198.913 139.62 198.653 139.667 198.387 139.76C198.133 139.84 197.887 139.96 197.647 140.12C197.407 140.28 197.193 140.467 197.007 140.68C196.833 140.894 196.707 141.127 196.627 141.38V143.84C196.787 144.227 197 144.58 197.267 144.9C197.547 145.22 197.867 145.474 198.227 145.66C198.587 145.834 198.953 145.92 199.327 145.92ZM212.44 152.52C212.16 152.52 211.873 152.487 211.58 152.42C211.3 152.354 210.973 152.254 210.6 152.12L211.12 150C211.32 150.094 211.507 150.16 211.68 150.2C211.867 150.24 212.033 150.26 212.18 150.26C212.513 150.26 212.807 150.14 213.06 149.9C213.327 149.66 213.54 149.294 213.7 148.8L214.02 147.94L209.78 137.52H212.56L215.38 145.26L217.86 137.52H220.42L216.14 149.5C215.913 150.14 215.613 150.68 215.24 151.12C214.867 151.574 214.44 151.92 213.96 152.16C213.48 152.4 212.973 152.52 212.44 152.52ZM226.473 148V133.8H236.713V136.18H229.213V139.6H233.073C234.66 139.6 235.853 139.974 236.653 140.72C237.453 141.467 237.853 142.467 237.853 143.72C237.853 144.56 237.68 145.3 237.333 145.94C236.986 146.58 236.473 147.087 235.793 147.46C235.113 147.82 234.253 148 233.213 148H226.473ZM229.213 145.62H232.833C233.366 145.62 233.793 145.527 234.113 145.34C234.433 145.14 234.666 144.894 234.813 144.6C234.96 144.294 235.033 143.974 235.033 143.64C235.033 143.307 234.966 143 234.833 142.72C234.713 142.427 234.493 142.194 234.173 142.02C233.853 141.834 233.393 141.74 232.793 141.74H229.213V145.62ZM238.813 144.9C238.813 144.22 238.999 143.627 239.373 143.12C239.759 142.6 240.293 142.2 240.973 141.92C241.653 141.64 242.433 141.5 243.312 141.5C243.753 141.5 244.199 141.534 244.653 141.6C245.106 141.667 245.499 141.774 245.833 141.92V141.36C245.833 140.694 245.633 140.18 245.233 139.82C244.846 139.46 244.266 139.28 243.493 139.28C242.919 139.28 242.373 139.38 241.853 139.58C241.333 139.78 240.786 140.074 240.213 140.46L239.353 138.7C240.046 138.247 240.753 137.907 241.473 137.68C242.206 137.454 242.973 137.34 243.773 137.34C245.266 137.34 246.426 137.714 247.253 138.46C248.093 139.207 248.513 140.274 248.513 141.66V145C248.513 145.28 248.559 145.48 248.653 145.6C248.759 145.72 248.926 145.794 249.153 145.82V148C248.913 148.04 248.693 148.074 248.493 148.1C248.306 148.127 248.146 148.14 248.013 148.14C247.479 148.14 247.073 148.02 246.793 147.78C246.526 147.54 246.359 147.247 246.293 146.9L246.233 146.36C245.779 146.947 245.213 147.4 244.533 147.72C243.853 148.04 243.159 148.2 242.453 148.2C241.759 148.2 241.133 148.06 240.573 147.78C240.026 147.487 239.593 147.094 239.273 146.6C238.966 146.094 238.813 145.527 238.813 144.9ZM245.333 145.44C245.479 145.28 245.599 145.12 245.693 144.96C245.786 144.8 245.833 144.654 245.833 144.52V143.46C245.513 143.327 245.166 143.227 244.793 143.16C244.419 143.08 244.066 143.04 243.733 143.04C243.039 143.04 242.466 143.194 242.013 143.5C241.573 143.794 241.353 144.187 241.353 144.68C241.353 144.947 241.426 145.2 241.573 145.44C241.719 145.68 241.933 145.874 242.213 146.02C242.493 146.167 242.826 146.24 243.213 146.24C243.613 146.24 244.006 146.167 244.393 146.02C244.779 145.86 245.093 145.667 245.333 145.44ZM257.297 148.2C256.484 148.2 255.764 148.02 255.137 147.66C254.524 147.287 254.044 146.787 253.697 146.16V152.26H251.017V137.52H253.357V139.32C253.757 138.707 254.264 138.227 254.877 137.88C255.49 137.52 256.19 137.34 256.977 137.34C257.684 137.34 258.33 137.48 258.917 137.76C259.517 138.04 260.037 138.434 260.477 138.94C260.917 139.434 261.257 140.007 261.497 140.66C261.75 141.3 261.877 141.994 261.877 142.74C261.877 143.754 261.677 144.674 261.277 145.5C260.89 146.327 260.35 146.987 259.657 147.48C258.977 147.96 258.19 148.2 257.297 148.2ZM256.397 145.92C256.81 145.92 257.184 145.834 257.517 145.66C257.85 145.487 258.137 145.254 258.377 144.96C258.63 144.654 258.817 144.314 258.937 143.94C259.07 143.554 259.137 143.154 259.137 142.74C259.137 142.3 259.064 141.894 258.917 141.52C258.784 141.147 258.584 140.82 258.317 140.54C258.05 140.247 257.737 140.02 257.377 139.86C257.03 139.7 256.65 139.62 256.237 139.62C255.984 139.62 255.724 139.667 255.457 139.76C255.204 139.84 254.957 139.96 254.717 140.12C254.477 140.28 254.264 140.467 254.077 140.68C253.904 140.894 253.777 141.127 253.697 141.38V143.84C253.857 144.227 254.07 144.58 254.337 144.9C254.617 145.22 254.937 145.474 255.297 145.66C255.657 145.834 256.024 145.92 256.397 145.92ZM268.573 148.2C267.719 148.2 266.953 148.06 266.273 147.78C265.593 147.487 265.013 147.087 264.533 146.58C264.053 146.06 263.679 145.474 263.413 144.82C263.159 144.167 263.033 143.48 263.033 142.76C263.033 141.774 263.253 140.874 263.693 140.06C264.146 139.234 264.786 138.574 265.613 138.08C266.439 137.587 267.419 137.34 268.553 137.34C269.686 137.34 270.659 137.587 271.473 138.08C272.286 138.574 272.893 139.22 273.293 140.02L270.673 140.82C270.446 140.434 270.146 140.14 269.773 139.94C269.399 139.727 268.986 139.62 268.533 139.62C268.026 139.62 267.559 139.754 267.133 140.02C266.719 140.274 266.393 140.64 266.153 141.12C265.913 141.587 265.793 142.134 265.793 142.76C265.793 143.374 265.913 143.92 266.153 144.4C266.406 144.867 266.739 145.24 267.153 145.52C267.566 145.787 268.026 145.92 268.533 145.92C268.853 145.92 269.153 145.867 269.433 145.76C269.726 145.654 269.986 145.507 270.213 145.32C270.439 145.134 270.606 144.92 270.713 144.68L273.333 145.48C273.093 146 272.739 146.467 272.273 146.88C271.819 147.294 271.279 147.62 270.653 147.86C270.039 148.087 269.346 148.2 268.573 148.2ZM279.744 148.2C278.904 148.2 278.144 148.06 277.464 147.78C276.784 147.487 276.204 147.094 275.724 146.6C275.244 146.094 274.871 145.52 274.604 144.88C274.351 144.227 274.224 143.54 274.224 142.82C274.224 141.82 274.444 140.907 274.884 140.08C275.337 139.254 275.977 138.594 276.804 138.1C277.644 137.594 278.631 137.34 279.764 137.34C280.911 137.34 281.891 137.594 282.704 138.1C283.517 138.594 284.137 139.254 284.564 140.08C285.004 140.894 285.224 141.774 285.224 142.72C285.224 142.88 285.217 143.047 285.204 143.22C285.191 143.38 285.177 143.514 285.164 143.62H277.064C277.117 144.154 277.271 144.62 277.524 145.02C277.791 145.42 278.124 145.727 278.524 145.94C278.937 146.14 279.377 146.24 279.844 146.24C280.377 146.24 280.877 146.114 281.344 145.86C281.824 145.594 282.151 145.247 282.324 144.82L284.624 145.46C284.371 145.994 284.004 146.467 283.524 146.88C283.057 147.294 282.504 147.62 281.864 147.86C281.224 148.087 280.517 148.2 279.744 148.2ZM277.004 141.92H282.484C282.431 141.387 282.277 140.927 282.024 140.54C281.784 140.14 281.464 139.834 281.064 139.62C280.664 139.394 280.217 139.28 279.724 139.28C279.244 139.28 278.804 139.394 278.404 139.62C278.017 139.834 277.697 140.14 277.444 140.54C277.204 140.927 277.057 141.387 277.004 141.92ZM286.097 148.14V145.76C286.417 145.747 286.703 145.667 286.957 145.52C287.21 145.374 287.43 145.127 287.617 144.78C287.817 144.42 287.97 143.92 288.077 143.28C288.197 142.64 288.277 141.82 288.317 140.82L288.457 137.52H296.317V148H293.637V139.86H290.817L290.777 141.08C290.723 142.454 290.59 143.594 290.377 144.5C290.163 145.407 289.863 146.127 289.477 146.66C289.103 147.18 288.637 147.554 288.077 147.78C287.517 148.007 286.857 148.127 286.097 148.14ZM303.591 148.2C302.738 148.2 301.971 148.06 301.291 147.78C300.611 147.487 300.031 147.087 299.551 146.58C299.085 146.074 298.725 145.494 298.471 144.84C298.218 144.187 298.091 143.5 298.091 142.78C298.091 142.047 298.218 141.354 298.471 140.7C298.725 140.047 299.085 139.467 299.551 138.96C300.031 138.454 300.611 138.06 301.291 137.78C301.971 137.487 302.738 137.34 303.591 137.34C304.445 137.34 305.205 137.487 305.871 137.78C306.551 138.06 307.131 138.454 307.611 138.96C308.091 139.467 308.451 140.047 308.691 140.7C308.945 141.354 309.071 142.047 309.071 142.78C309.071 143.5 308.945 144.187 308.691 144.84C308.451 145.494 308.091 146.074 307.611 146.58C307.145 147.087 306.571 147.487 305.891 147.78C305.211 148.06 304.445 148.2 303.591 148.2ZM300.851 142.78C300.851 143.394 300.971 143.94 301.211 144.42C301.451 144.887 301.778 145.254 302.191 145.52C302.605 145.787 303.071 145.92 303.591 145.92C304.098 145.92 304.558 145.787 304.971 145.52C305.385 145.24 305.711 144.867 305.951 144.4C306.205 143.92 306.331 143.374 306.331 142.76C306.331 142.16 306.205 141.62 305.951 141.14C305.711 140.66 305.385 140.287 304.971 140.02C304.558 139.754 304.098 139.62 303.591 139.62C303.071 139.62 302.605 139.76 302.191 140.04C301.778 140.307 301.451 140.68 301.211 141.16C300.971 141.627 300.851 142.167 300.851 142.78ZM310.88 148V137.52H313.56V141.52H317.8V137.52H320.48V148H317.8V143.76H313.56V148H310.88ZM322.931 148V137.52H325.611V148H322.931ZM322.931 136.06V133.4H325.611V136.06H322.931Z" fill="white"/>
</svg>
