<svg width="365" height="188" viewBox="0 0 365 188" fill="none" xmlns="http://www.w3.org/2000/svg">
<rect x="9.5" y="10.0002" width="345" height="168" rx="30" fill="#FFE711"/>
<path d="M26.02 134V119.8H34.74V122.22H28.76V134H26.02ZM38.0222 138.52C37.7422 138.52 37.4555 138.487 37.1622 138.42C36.8822 138.354 36.5555 138.254 36.1822 138.12L36.7022 136C36.9022 136.094 37.0889 136.16 37.2622 136.2C37.4489 136.24 37.6155 136.26 37.7622 136.26C38.0955 136.26 38.3889 136.14 38.6422 135.9C38.9089 135.66 39.1222 135.294 39.2822 134.8L39.6022 133.94L35.3622 123.52H38.1422L40.9622 131.26L43.4422 123.52H46.0022L41.7222 135.5C41.4955 136.14 41.1955 136.68 40.8222 137.12C40.4489 137.574 40.0222 137.92 39.5422 138.16C39.0622 138.4 38.5555 138.52 38.0222 138.52ZM47.4583 134V123.52H50.2583L53.5383 129.58L56.8383 123.52H59.5983V134H57.0583V127.22L54.3783 132.14H52.6983L49.9983 127.22V134H47.4583ZM61.3477 130.9C61.3477 130.22 61.5343 129.627 61.9077 129.12C62.2943 128.6 62.8277 128.2 63.5077 127.92C64.1877 127.64 64.9677 127.5 65.8477 127.5C66.2877 127.5 66.7343 127.534 67.1877 127.6C67.641 127.667 68.0343 127.774 68.3677 127.92V127.36C68.3677 126.694 68.1677 126.18 67.7677 125.82C67.381 125.46 66.801 125.28 66.0277 125.28C65.4543 125.28 64.9077 125.38 64.3877 125.58C63.8677 125.78 63.321 126.074 62.7477 126.46L61.8877 124.7C62.581 124.247 63.2877 123.907 64.0077 123.68C64.741 123.454 65.5077 123.34 66.3077 123.34C67.801 123.34 68.961 123.714 69.7877 124.46C70.6277 125.207 71.0477 126.274 71.0477 127.66V131C71.0477 131.28 71.0943 131.48 71.1877 131.6C71.2943 131.72 71.461 131.794 71.6877 131.82V134C71.4477 134.04 71.2277 134.074 71.0277 134.1C70.841 134.127 70.681 134.14 70.5477 134.14C70.0143 134.14 69.6077 134.02 69.3277 133.78C69.061 133.54 68.8943 133.247 68.8277 132.9L68.7677 132.36C68.3143 132.947 67.7477 133.4 67.0677 133.72C66.3877 134.04 65.6943 134.2 64.9877 134.2C64.2943 134.2 63.6677 134.06 63.1077 133.78C62.561 133.487 62.1277 133.094 61.8077 132.6C61.501 132.094 61.3477 131.527 61.3477 130.9ZM67.8677 131.44C68.0143 131.28 68.1343 131.12 68.2277 130.96C68.321 130.8 68.3677 130.654 68.3677 130.52V129.46C68.0477 129.327 67.701 129.227 67.3277 129.16C66.9543 129.08 66.601 129.04 66.2677 129.04C65.5743 129.04 65.001 129.194 64.5477 129.5C64.1077 129.794 63.8877 130.187 63.8877 130.68C63.8877 130.947 63.961 131.2 64.1077 131.44C64.2543 131.68 64.4677 131.874 64.7477 132.02C65.0277 132.167 65.361 132.24 65.7477 132.24C66.1477 132.24 66.541 132.167 66.9277 132.02C67.3143 131.86 67.6277 131.667 67.8677 131.44ZM73.552 134V123.52H76.232V127.52H80.472V123.52H83.152V134H80.472V129.76H76.232V134H73.552ZM85.6028 134V123.52H88.2828V134H85.6028ZM85.6028 122.06V119.4H88.2828V122.06H85.6028ZM93.1205 134V125.86H89.8005V123.52H99.1405V125.86H95.8005V134H93.1205ZM99.8828 130.9C99.8828 130.22 100.069 129.627 100.443 129.12C100.829 128.6 101.363 128.2 102.043 127.92C102.723 127.64 103.503 127.5 104.383 127.5C104.823 127.5 105.269 127.534 105.723 127.6C106.176 127.667 106.569 127.774 106.903 127.92V127.36C106.903 126.694 106.703 126.18 106.303 125.82C105.916 125.46 105.336 125.28 104.563 125.28C103.989 125.28 103.443 125.38 102.923 125.58C102.403 125.78 101.856 126.074 101.283 126.46L100.423 124.7C101.116 124.247 101.823 123.907 102.543 123.68C103.276 123.454 104.043 123.34 104.843 123.34C106.336 123.34 107.496 123.714 108.323 124.46C109.163 125.207 109.583 126.274 109.583 127.66V131C109.583 131.28 109.629 131.48 109.723 131.6C109.829 131.72 109.996 131.794 110.223 131.82V134C109.983 134.04 109.763 134.074 109.563 134.1C109.376 134.127 109.216 134.14 109.083 134.14C108.549 134.14 108.143 134.02 107.863 133.78C107.596 133.54 107.429 133.247 107.363 132.9L107.303 132.36C106.849 132.947 106.283 133.4 105.603 133.72C104.923 134.04 104.229 134.2 103.523 134.2C102.829 134.2 102.203 134.06 101.643 133.78C101.096 133.487 100.663 133.094 100.343 132.6C100.036 132.094 99.8828 131.527 99.8828 130.9ZM106.403 131.44C106.549 131.28 106.669 131.12 106.763 130.96C106.856 130.8 106.903 130.654 106.903 130.52V129.46C106.583 129.327 106.236 129.227 105.863 129.16C105.489 129.08 105.136 129.04 104.803 129.04C104.109 129.04 103.536 129.194 103.083 129.5C102.643 129.794 102.423 130.187 102.423 130.68C102.423 130.947 102.496 131.2 102.643 131.44C102.789 131.68 103.003 131.874 103.283 132.02C103.563 132.167 103.896 132.24 104.283 132.24C104.683 132.24 105.076 132.167 105.463 132.02C105.849 131.86 106.163 131.667 106.403 131.44ZM118.367 134.2C117.554 134.2 116.834 134.02 116.207 133.66C115.594 133.287 115.114 132.787 114.767 132.16V138.26H112.087V123.52H114.427V125.32C114.827 124.707 115.334 124.227 115.947 123.88C116.561 123.52 117.261 123.34 118.047 123.34C118.754 123.34 119.401 123.48 119.987 123.76C120.587 124.04 121.107 124.434 121.547 124.94C121.987 125.434 122.327 126.007 122.567 126.66C122.821 127.3 122.947 127.994 122.947 128.74C122.947 129.754 122.747 130.674 122.347 131.5C121.961 132.327 121.421 132.987 120.727 133.48C120.047 133.96 119.261 134.2 118.367 134.2ZM117.467 131.92C117.881 131.92 118.254 131.834 118.587 131.66C118.921 131.487 119.207 131.254 119.447 130.96C119.701 130.654 119.887 130.314 120.007 129.94C120.141 129.554 120.207 129.154 120.207 128.74C120.207 128.3 120.134 127.894 119.987 127.52C119.854 127.147 119.654 126.82 119.387 126.54C119.121 126.247 118.807 126.02 118.447 125.86C118.101 125.7 117.721 125.62 117.307 125.62C117.054 125.62 116.794 125.667 116.527 125.76C116.274 125.84 116.027 125.96 115.787 126.12C115.547 126.28 115.334 126.467 115.147 126.68C114.974 126.894 114.847 127.127 114.767 127.38V129.84C114.927 130.227 115.141 130.58 115.407 130.9C115.687 131.22 116.007 131.474 116.367 131.66C116.727 131.834 117.094 131.92 117.467 131.92ZM124.763 134V123.52H127.443V127.52H131.683V123.52H134.363V134H131.683V129.76H127.443V134H124.763ZM136.814 134V123.54H139.494V130.42L144.194 123.52H146.634V134H143.954V127.28L139.314 134H136.814ZM149.079 134V123.54H151.759V130.42L156.459 123.52H158.899V134H156.219V127.28L151.579 134H149.079ZM153.999 122.54C152.973 122.54 152.166 122.28 151.579 121.76C150.993 121.227 150.699 120.547 150.699 119.72H152.359C152.359 120.12 152.493 120.454 152.759 120.72C153.026 120.987 153.439 121.12 153.999 121.12C154.559 121.12 154.959 120.994 155.199 120.74C155.453 120.487 155.606 120.147 155.659 119.72H157.319C157.319 120.547 157.026 121.227 156.439 121.76C155.853 122.28 155.039 122.54 153.999 122.54ZM176.99 136.7V134H166.41V119.8H169.17V131.58H174.79V119.8H177.53V131.58H179.41V136.7H176.99ZM186.127 134.2C185.287 134.2 184.527 134.06 183.847 133.78C183.167 133.487 182.587 133.094 182.107 132.6C181.627 132.094 181.254 131.52 180.987 130.88C180.734 130.227 180.607 129.54 180.607 128.82C180.607 127.82 180.827 126.907 181.267 126.08C181.72 125.254 182.36 124.594 183.187 124.1C184.027 123.594 185.014 123.34 186.147 123.34C187.294 123.34 188.274 123.594 189.087 124.1C189.9 124.594 190.52 125.254 190.947 126.08C191.387 126.894 191.607 127.774 191.607 128.72C191.607 128.88 191.6 129.047 191.587 129.22C191.574 129.38 191.56 129.514 191.547 129.62H183.447C183.5 130.154 183.654 130.62 183.907 131.02C184.174 131.42 184.507 131.727 184.907 131.94C185.32 132.14 185.76 132.24 186.227 132.24C186.76 132.24 187.26 132.114 187.727 131.86C188.207 131.594 188.534 131.247 188.707 130.82L191.007 131.46C190.754 131.994 190.387 132.467 189.907 132.88C189.44 133.294 188.887 133.62 188.247 133.86C187.607 134.087 186.9 134.2 186.127 134.2ZM183.387 127.92H188.867C188.814 127.387 188.66 126.927 188.407 126.54C188.167 126.14 187.847 125.834 187.447 125.62C187.047 125.394 186.6 125.28 186.107 125.28C185.627 125.28 185.187 125.394 184.787 125.62C184.4 125.834 184.08 126.14 183.827 126.54C183.587 126.927 183.44 127.387 183.387 127.92ZM193.24 134V123.52H195.92V127.52H200.16V123.52H202.84V134H200.16V129.76H195.92V134H193.24ZM207.71 134V125.86H204.39V123.52H213.73V125.86H210.39V134H207.71ZM221.512 134.2C220.698 134.2 219.978 134.02 219.352 133.66C218.738 133.287 218.258 132.787 217.912 132.16V138.26H215.232V123.52H217.572V125.32C217.972 124.707 218.478 124.227 219.092 123.88C219.705 123.52 220.405 123.34 221.192 123.34C221.898 123.34 222.545 123.48 223.132 123.76C223.732 124.04 224.252 124.434 224.692 124.94C225.132 125.434 225.472 126.007 225.712 126.66C225.965 127.3 226.092 127.994 226.092 128.74C226.092 129.754 225.892 130.674 225.492 131.5C225.105 132.327 224.565 132.987 223.872 133.48C223.192 133.96 222.405 134.2 221.512 134.2ZM220.612 131.92C221.025 131.92 221.398 131.834 221.732 131.66C222.065 131.487 222.352 131.254 222.592 130.96C222.845 130.654 223.032 130.314 223.152 129.94C223.285 129.554 223.352 129.154 223.352 128.74C223.352 128.3 223.278 127.894 223.132 127.52C222.998 127.147 222.798 126.82 222.532 126.54C222.265 126.247 221.952 126.02 221.592 125.86C221.245 125.7 220.865 125.62 220.452 125.62C220.198 125.62 219.938 125.667 219.672 125.76C219.418 125.84 219.172 125.96 218.932 126.12C218.692 126.28 218.478 126.467 218.292 126.68C218.118 126.894 217.992 127.127 217.912 127.38V129.84C218.072 130.227 218.285 130.58 218.552 130.9C218.832 131.22 219.152 131.474 219.512 131.66C219.872 131.834 220.238 131.92 220.612 131.92ZM231.852 136.54V131.66H232.132C232.399 131.66 232.646 131.587 232.872 131.44C233.112 131.294 233.319 131.047 233.492 130.7C233.679 130.34 233.826 129.847 233.932 129.22C234.052 128.594 234.132 127.794 234.172 126.82L234.292 123.52H242.152V131.66H243.612V136.54H241.272V134H234.212V136.54H231.852ZM235.512 131.66H239.472V125.78H236.632L236.572 127.08C236.532 127.96 236.466 128.707 236.372 129.32C236.292 129.92 236.179 130.414 236.032 130.8C235.899 131.174 235.726 131.46 235.512 131.66ZM250.189 134.2C249.336 134.2 248.569 134.06 247.889 133.78C247.209 133.487 246.629 133.087 246.149 132.58C245.682 132.074 245.322 131.494 245.069 130.84C244.816 130.187 244.689 129.5 244.689 128.78C244.689 128.047 244.816 127.354 245.069 126.7C245.322 126.047 245.682 125.467 246.149 124.96C246.629 124.454 247.209 124.06 247.889 123.78C248.569 123.487 249.336 123.34 250.189 123.34C251.042 123.34 251.802 123.487 252.469 123.78C253.149 124.06 253.729 124.454 254.209 124.96C254.689 125.467 255.049 126.047 255.289 126.7C255.542 127.354 255.669 128.047 255.669 128.78C255.669 129.5 255.542 130.187 255.289 130.84C255.049 131.494 254.689 132.074 254.209 132.58C253.742 133.087 253.169 133.487 252.489 133.78C251.809 134.06 251.042 134.2 250.189 134.2ZM247.449 128.78C247.449 129.394 247.569 129.94 247.809 130.42C248.049 130.887 248.376 131.254 248.789 131.52C249.202 131.787 249.669 131.92 250.189 131.92C250.696 131.92 251.156 131.787 251.569 131.52C251.982 131.24 252.309 130.867 252.549 130.4C252.802 129.92 252.929 129.374 252.929 128.76C252.929 128.16 252.802 127.62 252.549 127.14C252.309 126.66 251.982 126.287 251.569 126.02C251.156 125.754 250.696 125.62 250.189 125.62C249.669 125.62 249.202 125.76 248.789 126.04C248.376 126.307 248.049 126.68 247.809 127.16C247.569 127.627 247.449 128.167 247.449 128.78ZM257.478 134V123.52H266.878V134H264.198V125.86H260.158V134H257.478ZM274.154 134.2C273.3 134.2 272.534 134.06 271.854 133.78C271.174 133.487 270.594 133.087 270.114 132.58C269.647 132.074 269.287 131.494 269.034 130.84C268.78 130.187 268.654 129.5 268.654 128.78C268.654 128.047 268.78 127.354 269.034 126.7C269.287 126.047 269.647 125.467 270.114 124.96C270.594 124.454 271.174 124.06 271.854 123.78C272.534 123.487 273.3 123.34 274.154 123.34C275.007 123.34 275.767 123.487 276.434 123.78C277.114 124.06 277.694 124.454 278.174 124.96C278.654 125.467 279.014 126.047 279.254 126.7C279.507 127.354 279.634 128.047 279.634 128.78C279.634 129.5 279.507 130.187 279.254 130.84C279.014 131.494 278.654 132.074 278.174 132.58C277.707 133.087 277.134 133.487 276.454 133.78C275.774 134.06 275.007 134.2 274.154 134.2ZM271.414 128.78C271.414 129.394 271.534 129.94 271.774 130.42C272.014 130.887 272.34 131.254 272.754 131.52C273.167 131.787 273.634 131.92 274.154 131.92C274.66 131.92 275.12 131.787 275.534 131.52C275.947 131.24 276.274 130.867 276.514 130.4C276.767 129.92 276.894 129.374 276.894 128.76C276.894 128.16 276.767 127.62 276.514 127.14C276.274 126.66 275.947 126.287 275.534 126.02C275.12 125.754 274.66 125.62 274.154 125.62C273.634 125.62 273.167 125.76 272.754 126.04C272.34 126.307 272.014 126.68 271.774 127.16C271.534 127.627 271.414 128.167 271.414 128.78ZM281.443 134V123.52H284.243L287.523 129.58L290.823 123.52H293.583V134H291.043V127.22L288.363 132.14H286.683L283.983 127.22V134H281.443ZM300.892 134.2C300.039 134.2 299.272 134.06 298.592 133.78C297.912 133.487 297.332 133.087 296.852 132.58C296.385 132.074 296.025 131.494 295.772 130.84C295.519 130.187 295.392 129.5 295.392 128.78C295.392 128.047 295.519 127.354 295.772 126.7C296.025 126.047 296.385 125.467 296.852 124.96C297.332 124.454 297.912 124.06 298.592 123.78C299.272 123.487 300.039 123.34 300.892 123.34C301.745 123.34 302.505 123.487 303.172 123.78C303.852 124.06 304.432 124.454 304.912 124.96C305.392 125.467 305.752 126.047 305.992 126.7C306.245 127.354 306.372 128.047 306.372 128.78C306.372 129.5 306.245 130.187 305.992 130.84C305.752 131.494 305.392 132.074 304.912 132.58C304.445 133.087 303.872 133.487 303.192 133.78C302.512 134.06 301.745 134.2 300.892 134.2ZM298.152 128.78C298.152 129.394 298.272 129.94 298.512 130.42C298.752 130.887 299.079 131.254 299.492 131.52C299.905 131.787 300.372 131.92 300.892 131.92C301.399 131.92 301.859 131.787 302.272 131.52C302.685 131.24 303.012 130.867 303.252 130.4C303.505 129.92 303.632 129.374 303.632 128.76C303.632 128.16 303.505 127.62 303.252 127.14C303.012 126.66 302.685 126.287 302.272 126.02C301.859 125.754 301.399 125.62 300.892 125.62C300.372 125.62 299.905 125.76 299.492 126.04C299.079 126.307 298.752 126.68 298.512 127.16C298.272 127.627 298.152 128.167 298.152 128.78ZM308.181 134V123.52H315.121V125.86H310.861V134H308.181ZM316.658 134V123.54H319.338V130.42L324.038 123.52H326.478V134H323.798V127.28L319.158 134H316.658ZM27.36 158.1V155.82H28.48C28.8267 155.82 29.0867 155.747 29.26 155.6C29.4333 155.454 29.5867 155.22 29.72 154.9L30.04 154.2L24.4 143.8H27.44L31.26 151.4L34.58 143.8H37.48L31.82 156.2C31.4733 156.907 31.08 157.4 30.64 157.68C30.2 157.96 29.6133 158.1 28.88 158.1H27.36ZM38.4934 158V147.52H41.1734V151.48H42.0734L44.9134 147.52H47.8334L44.1134 152.58L48.2334 158H45.1734L42.0334 153.84H41.1734V158H38.4934ZM56.1797 158.2C55.3664 158.2 54.6464 158.02 54.0197 157.66C53.4064 157.287 52.9264 156.787 52.5797 156.16V162.26H49.8997V147.52H52.2397V149.32C52.6397 148.707 53.1464 148.227 53.7597 147.88C54.373 147.52 55.073 147.34 55.8597 147.34C56.5664 147.34 57.213 147.48 57.7997 147.76C58.3997 148.04 58.9197 148.434 59.3597 148.94C59.7997 149.434 60.1397 150.007 60.3797 150.66C60.633 151.3 60.7597 151.994 60.7597 152.74C60.7597 153.754 60.5597 154.674 60.1597 155.5C59.773 156.327 59.233 156.987 58.5397 157.48C57.8597 157.96 57.073 158.2 56.1797 158.2ZM55.2797 155.92C55.693 155.92 56.0664 155.834 56.3997 155.66C56.733 155.487 57.0197 155.254 57.2597 154.96C57.513 154.654 57.6997 154.314 57.8197 153.94C57.953 153.554 58.0197 153.154 58.0197 152.74C58.0197 152.3 57.9464 151.894 57.7997 151.52C57.6664 151.147 57.4664 150.82 57.1997 150.54C56.933 150.247 56.6197 150.02 56.2597 149.86C55.913 149.7 55.533 149.62 55.1197 149.62C54.8664 149.62 54.6064 149.667 54.3397 149.76C54.0864 149.84 53.8397 149.96 53.5997 150.12C53.3597 150.28 53.1464 150.467 52.9597 150.68C52.7864 150.894 52.6597 151.127 52.5797 151.38V153.84C52.7397 154.227 52.953 154.58 53.2197 154.9C53.4997 155.22 53.8197 155.474 54.1797 155.66C54.5397 155.834 54.9064 155.92 55.2797 155.92ZM61.8555 154.9C61.8555 154.22 62.0421 153.627 62.4155 153.12C62.8021 152.6 63.3355 152.2 64.0155 151.92C64.6955 151.64 65.4755 151.5 66.3555 151.5C66.7955 151.5 67.2421 151.534 67.6955 151.6C68.1488 151.667 68.5421 151.774 68.8755 151.92V151.36C68.8755 150.694 68.6755 150.18 68.2755 149.82C67.8888 149.46 67.3088 149.28 66.5355 149.28C65.9621 149.28 65.4155 149.38 64.8955 149.58C64.3755 149.78 63.8288 150.074 63.2555 150.46L62.3955 148.7C63.0888 148.247 63.7955 147.907 64.5155 147.68C65.2488 147.454 66.0155 147.34 66.8155 147.34C68.3088 147.34 69.4688 147.714 70.2955 148.46C71.1355 149.207 71.5555 150.274 71.5555 151.66V155C71.5555 155.28 71.6021 155.48 71.6955 155.6C71.8021 155.72 71.9688 155.794 72.1955 155.82V158C71.9555 158.04 71.7355 158.074 71.5355 158.1C71.3488 158.127 71.1888 158.14 71.0555 158.14C70.5221 158.14 70.1155 158.02 69.8355 157.78C69.5688 157.54 69.4021 157.247 69.3355 156.9L69.2755 156.36C68.8221 156.947 68.2555 157.4 67.5755 157.72C66.8955 158.04 66.2021 158.2 65.4955 158.2C64.8021 158.2 64.1755 158.06 63.6155 157.78C63.0688 157.487 62.6355 157.094 62.3155 156.6C62.0088 156.094 61.8555 155.527 61.8555 154.9ZM68.3755 155.44C68.5221 155.28 68.6421 155.12 68.7355 154.96C68.8288 154.8 68.8755 154.654 68.8755 154.52V153.46C68.5555 153.327 68.2088 153.227 67.8355 153.16C67.4621 153.08 67.1088 153.04 66.7755 153.04C66.0821 153.04 65.5088 153.194 65.0555 153.5C64.6155 153.794 64.3955 154.187 64.3955 154.68C64.3955 154.947 64.4688 155.2 64.6155 155.44C64.7621 155.68 64.9755 155.874 65.2555 156.02C65.5355 156.167 65.8688 156.24 66.2555 156.24C66.6555 156.24 67.0488 156.167 67.4355 156.02C67.8221 155.86 68.1355 155.667 68.3755 155.44ZM74.0598 158V147.52H76.7398V158H74.0598ZM72.3598 145.9V143.52H74.5798V145.9H72.3598ZM76.1998 145.9V143.52H78.4198V145.9H76.1998ZM79.1575 158V147.52H81.8375V151.52H86.0775V147.52H88.7575V158H86.0775V153.76H81.8375V158H79.1575ZM91.2083 158V147.52H93.8883V158H91.2083ZM91.2083 146.06V143.4H93.8883V146.06H91.2083Z" fill="#333333"/>
<rect width="365" height="188" rx="30" fill="#FFE711"/>
<path d="M25.52 134V119.8H34.24V122.22H28.26V134H25.52ZM37.5222 138.52C37.2422 138.52 36.9555 138.487 36.6622 138.42C36.3822 138.353 36.0555 138.253 35.6822 138.12L36.2022 136C36.4022 136.093 36.5889 136.16 36.7622 136.2C36.9489 136.24 37.1155 136.26 37.2622 136.26C37.5955 136.26 37.8889 136.14 38.1422 135.9C38.4089 135.66 38.6222 135.293 38.7822 134.8L39.1022 133.94L34.8622 123.52H37.6422L40.4622 131.26L42.9422 123.52H45.5022L41.2222 135.5C40.9955 136.14 40.6955 136.68 40.3222 137.12C39.9489 137.573 39.5222 137.92 39.0422 138.16C38.5622 138.4 38.0555 138.52 37.5222 138.52ZM46.9583 134V123.52H49.7583L53.0383 129.58L56.3383 123.52H59.0983V134H56.5583V127.22L53.8783 132.14H52.1983L49.4983 127.22V134H46.9583ZM60.8477 130.9C60.8477 130.22 61.0343 129.627 61.4077 129.12C61.7943 128.6 62.3277 128.2 63.0077 127.92C63.6877 127.64 64.4677 127.5 65.3477 127.5C65.7877 127.5 66.2343 127.533 66.6877 127.6C67.141 127.667 67.5343 127.773 67.8677 127.92V127.36C67.8677 126.693 67.6677 126.18 67.2677 125.82C66.881 125.46 66.301 125.28 65.5277 125.28C64.9543 125.28 64.4077 125.38 63.8877 125.58C63.3677 125.78 62.821 126.073 62.2477 126.46L61.3877 124.7C62.081 124.247 62.7877 123.907 63.5077 123.68C64.241 123.453 65.0077 123.34 65.8077 123.34C67.301 123.34 68.461 123.713 69.2877 124.46C70.1277 125.207 70.5477 126.273 70.5477 127.66V131C70.5477 131.28 70.5943 131.48 70.6877 131.6C70.7943 131.72 70.961 131.793 71.1877 131.82V134C70.9477 134.04 70.7277 134.073 70.5277 134.1C70.341 134.127 70.181 134.14 70.0477 134.14C69.5143 134.14 69.1077 134.02 68.8277 133.78C68.561 133.54 68.3943 133.247 68.3277 132.9L68.2677 132.36C67.8143 132.947 67.2477 133.4 66.5677 133.72C65.8877 134.04 65.1943 134.2 64.4877 134.2C63.7943 134.2 63.1677 134.06 62.6077 133.78C62.061 133.487 61.6277 133.093 61.3077 132.6C61.001 132.093 60.8477 131.527 60.8477 130.9ZM67.3677 131.44C67.5143 131.28 67.6343 131.12 67.7277 130.96C67.821 130.8 67.8677 130.653 67.8677 130.52V129.46C67.5477 129.327 67.201 129.227 66.8277 129.16C66.4543 129.08 66.101 129.04 65.7677 129.04C65.0743 129.04 64.501 129.193 64.0477 129.5C63.6077 129.793 63.3877 130.187 63.3877 130.68C63.3877 130.947 63.461 131.2 63.6077 131.44C63.7543 131.68 63.9677 131.873 64.2477 132.02C64.5277 132.167 64.861 132.24 65.2477 132.24C65.6477 132.24 66.041 132.167 66.4277 132.02C66.8143 131.86 67.1277 131.667 67.3677 131.44ZM73.052 134V123.52H75.732V127.52H79.972V123.52H82.652V134H79.972V129.76H75.732V134H73.052ZM85.1028 134V123.52H87.7828V134H85.1028ZM85.1028 122.06V119.4H87.7828V122.06H85.1028ZM92.6205 134V125.86H89.3005V123.52H98.6405V125.86H95.3005V134H92.6205ZM99.3828 130.9C99.3828 130.22 99.5695 129.627 99.9428 129.12C100.329 128.6 100.863 128.2 101.543 127.92C102.223 127.64 103.003 127.5 103.883 127.5C104.323 127.5 104.769 127.533 105.223 127.6C105.676 127.667 106.069 127.773 106.403 127.92V127.36C106.403 126.693 106.203 126.18 105.803 125.82C105.416 125.46 104.836 125.28 104.063 125.28C103.489 125.28 102.943 125.38 102.423 125.58C101.903 125.78 101.356 126.073 100.783 126.46L99.9228 124.7C100.616 124.247 101.323 123.907 102.043 123.68C102.776 123.453 103.543 123.34 104.343 123.34C105.836 123.34 106.996 123.713 107.823 124.46C108.663 125.207 109.083 126.273 109.083 127.66V131C109.083 131.28 109.129 131.48 109.223 131.6C109.329 131.72 109.496 131.793 109.723 131.82V134C109.483 134.04 109.263 134.073 109.063 134.1C108.876 134.127 108.716 134.14 108.583 134.14C108.049 134.14 107.643 134.02 107.363 133.78C107.096 133.54 106.929 133.247 106.863 132.9L106.803 132.36C106.349 132.947 105.783 133.4 105.103 133.72C104.423 134.04 103.729 134.2 103.023 134.2C102.329 134.2 101.703 134.06 101.143 133.78C100.596 133.487 100.163 133.093 99.8428 132.6C99.5361 132.093 99.3828 131.527 99.3828 130.9ZM105.903 131.44C106.049 131.28 106.169 131.12 106.263 130.96C106.356 130.8 106.403 130.653 106.403 130.52V129.46C106.083 129.327 105.736 129.227 105.363 129.16C104.989 129.08 104.636 129.04 104.303 129.04C103.609 129.04 103.036 129.193 102.583 129.5C102.143 129.793 101.923 130.187 101.923 130.68C101.923 130.947 101.996 131.2 102.143 131.44C102.289 131.68 102.503 131.873 102.783 132.02C103.063 132.167 103.396 132.24 103.783 132.24C104.183 132.24 104.576 132.167 104.963 132.02C105.349 131.86 105.663 131.667 105.903 131.44ZM117.867 134.2C117.054 134.2 116.334 134.02 115.707 133.66C115.094 133.287 114.614 132.787 114.267 132.16V138.26H111.587V123.52H113.927V125.32C114.327 124.707 114.834 124.227 115.447 123.88C116.061 123.52 116.761 123.34 117.547 123.34C118.254 123.34 118.901 123.48 119.487 123.76C120.087 124.04 120.607 124.433 121.047 124.94C121.487 125.433 121.827 126.007 122.067 126.66C122.321 127.3 122.447 127.993 122.447 128.74C122.447 129.753 122.247 130.673 121.847 131.5C121.461 132.327 120.921 132.987 120.227 133.48C119.547 133.96 118.761 134.2 117.867 134.2ZM116.967 131.92C117.381 131.92 117.754 131.833 118.087 131.66C118.421 131.487 118.707 131.253 118.947 130.96C119.201 130.653 119.387 130.313 119.507 129.94C119.641 129.553 119.707 129.153 119.707 128.74C119.707 128.3 119.634 127.893 119.487 127.52C119.354 127.147 119.154 126.82 118.887 126.54C118.621 126.247 118.307 126.02 117.947 125.86C117.601 125.7 117.221 125.62 116.807 125.62C116.554 125.62 116.294 125.667 116.027 125.76C115.774 125.84 115.527 125.96 115.287 126.12C115.047 126.28 114.834 126.467 114.647 126.68C114.474 126.893 114.347 127.127 114.267 127.38V129.84C114.427 130.227 114.641 130.58 114.907 130.9C115.187 131.22 115.507 131.473 115.867 131.66C116.227 131.833 116.594 131.92 116.967 131.92ZM124.263 134V123.52H126.943V127.52H131.183V123.52H133.863V134H131.183V129.76H126.943V134H124.263ZM136.314 134V123.54H138.994V130.42L143.694 123.52H146.134V134H143.454V127.28L138.814 134H136.314ZM148.579 134V123.54H151.259V130.42L155.959 123.52H158.399V134H155.719V127.28L151.079 134H148.579ZM153.499 122.54C152.473 122.54 151.666 122.28 151.079 121.76C150.493 121.227 150.199 120.547 150.199 119.72H151.859C151.859 120.12 151.993 120.453 152.259 120.72C152.526 120.987 152.939 121.12 153.499 121.12C154.059 121.12 154.459 120.993 154.699 120.74C154.953 120.487 155.106 120.147 155.159 119.72H156.819C156.819 120.547 156.526 121.227 155.939 121.76C155.353 122.28 154.539 122.54 153.499 122.54ZM176.49 136.7V134H165.91V119.8H168.67V131.58H174.29V119.8H177.03V131.58H178.91V136.7H176.49ZM185.627 134.2C184.787 134.2 184.027 134.06 183.347 133.78C182.667 133.487 182.087 133.093 181.607 132.6C181.127 132.093 180.754 131.52 180.487 130.88C180.234 130.227 180.107 129.54 180.107 128.82C180.107 127.82 180.327 126.907 180.767 126.08C181.22 125.253 181.86 124.593 182.687 124.1C183.527 123.593 184.514 123.34 185.647 123.34C186.794 123.34 187.774 123.593 188.587 124.1C189.4 124.593 190.02 125.253 190.447 126.08C190.887 126.893 191.107 127.773 191.107 128.72C191.107 128.88 191.1 129.047 191.087 129.22C191.074 129.38 191.06 129.513 191.047 129.62H182.947C183 130.153 183.154 130.62 183.407 131.02C183.674 131.42 184.007 131.727 184.407 131.94C184.82 132.14 185.26 132.24 185.727 132.24C186.26 132.24 186.76 132.113 187.227 131.86C187.707 131.593 188.034 131.247 188.207 130.82L190.507 131.46C190.254 131.993 189.887 132.467 189.407 132.88C188.94 133.293 188.387 133.62 187.747 133.86C187.107 134.087 186.4 134.2 185.627 134.2ZM182.887 127.92H188.367C188.314 127.387 188.16 126.927 187.907 126.54C187.667 126.14 187.347 125.833 186.947 125.62C186.547 125.393 186.1 125.28 185.607 125.28C185.127 125.28 184.687 125.393 184.287 125.62C183.9 125.833 183.58 126.14 183.327 126.54C183.087 126.927 182.94 127.387 182.887 127.92ZM192.74 134V123.52H195.42V127.52H199.66V123.52H202.34V134H199.66V129.76H195.42V134H192.74ZM207.21 134V125.86H203.89V123.52H213.23V125.86H209.89V134H207.21ZM221.012 134.2C220.198 134.2 219.478 134.02 218.852 133.66C218.238 133.287 217.758 132.787 217.412 132.16V138.26H214.732V123.52H217.072V125.32C217.472 124.707 217.978 124.227 218.592 123.88C219.205 123.52 219.905 123.34 220.692 123.34C221.398 123.34 222.045 123.48 222.632 123.76C223.232 124.04 223.752 124.433 224.192 124.94C224.632 125.433 224.972 126.007 225.212 126.66C225.465 127.3 225.592 127.993 225.592 128.74C225.592 129.753 225.392 130.673 224.992 131.5C224.605 132.327 224.065 132.987 223.372 133.48C222.692 133.96 221.905 134.2 221.012 134.2ZM220.112 131.92C220.525 131.92 220.898 131.833 221.232 131.66C221.565 131.487 221.852 131.253 222.092 130.96C222.345 130.653 222.532 130.313 222.652 129.94C222.785 129.553 222.852 129.153 222.852 128.74C222.852 128.3 222.778 127.893 222.632 127.52C222.498 127.147 222.298 126.82 222.032 126.54C221.765 126.247 221.452 126.02 221.092 125.86C220.745 125.7 220.365 125.62 219.952 125.62C219.698 125.62 219.438 125.667 219.172 125.76C218.918 125.84 218.672 125.96 218.432 126.12C218.192 126.28 217.978 126.467 217.792 126.68C217.618 126.893 217.492 127.127 217.412 127.38V129.84C217.572 130.227 217.785 130.58 218.052 130.9C218.332 131.22 218.652 131.473 219.012 131.66C219.372 131.833 219.738 131.92 220.112 131.92ZM231.352 136.54V131.66H231.632C231.899 131.66 232.146 131.587 232.372 131.44C232.612 131.293 232.819 131.047 232.992 130.7C233.179 130.34 233.326 129.847 233.432 129.22C233.552 128.593 233.632 127.793 233.672 126.82L233.792 123.52H241.652V131.66H243.112V136.54H240.772V134H233.712V136.54H231.352ZM235.012 131.66H238.972V125.78H236.132L236.072 127.08C236.032 127.96 235.966 128.707 235.872 129.32C235.792 129.92 235.679 130.413 235.532 130.8C235.399 131.173 235.226 131.46 235.012 131.66ZM249.689 134.2C248.836 134.2 248.069 134.06 247.389 133.78C246.709 133.487 246.129 133.087 245.649 132.58C245.182 132.073 244.822 131.493 244.569 130.84C244.316 130.187 244.189 129.5 244.189 128.78C244.189 128.047 244.316 127.353 244.569 126.7C244.822 126.047 245.182 125.467 245.649 124.96C246.129 124.453 246.709 124.06 247.389 123.78C248.069 123.487 248.836 123.34 249.689 123.34C250.542 123.34 251.302 123.487 251.969 123.78C252.649 124.06 253.229 124.453 253.709 124.96C254.189 125.467 254.549 126.047 254.789 126.7C255.042 127.353 255.169 128.047 255.169 128.78C255.169 129.5 255.042 130.187 254.789 130.84C254.549 131.493 254.189 132.073 253.709 132.58C253.242 133.087 252.669 133.487 251.989 133.78C251.309 134.06 250.542 134.2 249.689 134.2ZM246.949 128.78C246.949 129.393 247.069 129.94 247.309 130.42C247.549 130.887 247.876 131.253 248.289 131.52C248.702 131.787 249.169 131.92 249.689 131.92C250.196 131.92 250.656 131.787 251.069 131.52C251.482 131.24 251.809 130.867 252.049 130.4C252.302 129.92 252.429 129.373 252.429 128.76C252.429 128.16 252.302 127.62 252.049 127.14C251.809 126.66 251.482 126.287 251.069 126.02C250.656 125.753 250.196 125.62 249.689 125.62C249.169 125.62 248.702 125.76 248.289 126.04C247.876 126.307 247.549 126.68 247.309 127.16C247.069 127.627 246.949 128.167 246.949 128.78ZM256.978 134V123.52H266.378V134H263.698V125.86H259.658V134H256.978ZM273.654 134.2C272.8 134.2 272.034 134.06 271.354 133.78C270.674 133.487 270.094 133.087 269.614 132.58C269.147 132.073 268.787 131.493 268.534 130.84C268.28 130.187 268.154 129.5 268.154 128.78C268.154 128.047 268.28 127.353 268.534 126.7C268.787 126.047 269.147 125.467 269.614 124.96C270.094 124.453 270.674 124.06 271.354 123.78C272.034 123.487 272.8 123.34 273.654 123.34C274.507 123.34 275.267 123.487 275.934 123.78C276.614 124.06 277.194 124.453 277.674 124.96C278.154 125.467 278.514 126.047 278.754 126.7C279.007 127.353 279.134 128.047 279.134 128.78C279.134 129.5 279.007 130.187 278.754 130.84C278.514 131.493 278.154 132.073 277.674 132.58C277.207 133.087 276.634 133.487 275.954 133.78C275.274 134.06 274.507 134.2 273.654 134.2ZM270.914 128.78C270.914 129.393 271.034 129.94 271.274 130.42C271.514 130.887 271.84 131.253 272.254 131.52C272.667 131.787 273.134 131.92 273.654 131.92C274.16 131.92 274.62 131.787 275.034 131.52C275.447 131.24 275.774 130.867 276.014 130.4C276.267 129.92 276.394 129.373 276.394 128.76C276.394 128.16 276.267 127.62 276.014 127.14C275.774 126.66 275.447 126.287 275.034 126.02C274.62 125.753 274.16 125.62 273.654 125.62C273.134 125.62 272.667 125.76 272.254 126.04C271.84 126.307 271.514 126.68 271.274 127.16C271.034 127.627 270.914 128.167 270.914 128.78ZM280.943 134V123.52H283.743L287.023 129.58L290.323 123.52H293.083V134H290.543V127.22L287.863 132.14H286.183L283.483 127.22V134H280.943ZM300.392 134.2C299.539 134.2 298.772 134.06 298.092 133.78C297.412 133.487 296.832 133.087 296.352 132.58C295.885 132.073 295.525 131.493 295.272 130.84C295.019 130.187 294.892 129.5 294.892 128.78C294.892 128.047 295.019 127.353 295.272 126.7C295.525 126.047 295.885 125.467 296.352 124.96C296.832 124.453 297.412 124.06 298.092 123.78C298.772 123.487 299.539 123.34 300.392 123.34C301.245 123.34 302.005 123.487 302.672 123.78C303.352 124.06 303.932 124.453 304.412 124.96C304.892 125.467 305.252 126.047 305.492 126.7C305.745 127.353 305.872 128.047 305.872 128.78C305.872 129.5 305.745 130.187 305.492 130.84C305.252 131.493 304.892 132.073 304.412 132.58C303.945 133.087 303.372 133.487 302.692 133.78C302.012 134.06 301.245 134.2 300.392 134.2ZM297.652 128.78C297.652 129.393 297.772 129.94 298.012 130.42C298.252 130.887 298.579 131.253 298.992 131.52C299.405 131.787 299.872 131.92 300.392 131.92C300.899 131.92 301.359 131.787 301.772 131.52C302.185 131.24 302.512 130.867 302.752 130.4C303.005 129.92 303.132 129.373 303.132 128.76C303.132 128.16 303.005 127.62 302.752 127.14C302.512 126.66 302.185 126.287 301.772 126.02C301.359 125.753 300.899 125.62 300.392 125.62C299.872 125.62 299.405 125.76 298.992 126.04C298.579 126.307 298.252 126.68 298.012 127.16C297.772 127.627 297.652 128.167 297.652 128.78ZM307.681 134V123.52H314.621V125.86H310.361V134H307.681ZM316.158 134V123.54H318.838V130.42L323.538 123.52H325.978V134H323.298V127.28L318.658 134H316.158ZM26.86 158.1V155.82H27.98C28.3267 155.82 28.5867 155.747 28.76 155.6C28.9333 155.453 29.0867 155.22 29.22 154.9L29.54 154.2L23.9 143.8H26.94L30.76 151.4L34.08 143.8H36.98L31.32 156.2C30.9733 156.907 30.58 157.4 30.14 157.68C29.7 157.96 29.1133 158.1 28.38 158.1H26.86ZM37.9934 158V147.52H40.6734V151.48H41.5734L44.4134 147.52H47.3334L43.6134 152.58L47.7334 158H44.6734L41.5334 153.84H40.6734V158H37.9934ZM55.6797 158.2C54.8664 158.2 54.1464 158.02 53.5197 157.66C52.9064 157.287 52.4264 156.787 52.0797 156.16V162.26H49.3997V147.52H51.7397V149.32C52.1397 148.707 52.6464 148.227 53.2597 147.88C53.873 147.52 54.573 147.34 55.3597 147.34C56.0664 147.34 56.713 147.48 57.2997 147.76C57.8997 148.04 58.4197 148.433 58.8597 148.94C59.2997 149.433 59.6397 150.007 59.8797 150.66C60.133 151.3 60.2597 151.993 60.2597 152.74C60.2597 153.753 60.0597 154.673 59.6597 155.5C59.273 156.327 58.733 156.987 58.0397 157.48C57.3597 157.96 56.573 158.2 55.6797 158.2ZM54.7797 155.92C55.193 155.92 55.5664 155.833 55.8997 155.66C56.233 155.487 56.5197 155.253 56.7597 154.96C57.013 154.653 57.1997 154.313 57.3197 153.94C57.453 153.553 57.5197 153.153 57.5197 152.74C57.5197 152.3 57.4464 151.893 57.2997 151.52C57.1664 151.147 56.9664 150.82 56.6997 150.54C56.433 150.247 56.1197 150.02 55.7597 149.86C55.413 149.7 55.033 149.62 54.6197 149.62C54.3664 149.62 54.1064 149.667 53.8397 149.76C53.5864 149.84 53.3397 149.96 53.0997 150.12C52.8597 150.28 52.6464 150.467 52.4597 150.68C52.2864 150.893 52.1597 151.127 52.0797 151.38V153.84C52.2397 154.227 52.453 154.58 52.7197 154.9C52.9997 155.22 53.3197 155.473 53.6797 155.66C54.0397 155.833 54.4064 155.92 54.7797 155.92ZM61.3555 154.9C61.3555 154.22 61.5421 153.627 61.9155 153.12C62.3021 152.6 62.8355 152.2 63.5155 151.92C64.1955 151.64 64.9755 151.5 65.8555 151.5C66.2955 151.5 66.7421 151.533 67.1955 151.6C67.6488 151.667 68.0421 151.773 68.3755 151.92V151.36C68.3755 150.693 68.1755 150.18 67.7755 149.82C67.3888 149.46 66.8088 149.28 66.0355 149.28C65.4621 149.28 64.9155 149.38 64.3955 149.58C63.8755 149.78 63.3288 150.073 62.7555 150.46L61.8955 148.7C62.5888 148.247 63.2955 147.907 64.0155 147.68C64.7488 147.453 65.5155 147.34 66.3155 147.34C67.8088 147.34 68.9688 147.713 69.7955 148.46C70.6355 149.207 71.0555 150.273 71.0555 151.66V155C71.0555 155.28 71.1021 155.48 71.1955 155.6C71.3021 155.72 71.4688 155.793 71.6955 155.82V158C71.4555 158.04 71.2355 158.073 71.0355 158.1C70.8488 158.127 70.6888 158.14 70.5555 158.14C70.0221 158.14 69.6155 158.02 69.3355 157.78C69.0688 157.54 68.9021 157.247 68.8355 156.9L68.7755 156.36C68.3221 156.947 67.7555 157.4 67.0755 157.72C66.3955 158.04 65.7021 158.2 64.9955 158.2C64.3021 158.2 63.6755 158.06 63.1155 157.78C62.5688 157.487 62.1355 157.093 61.8155 156.6C61.5088 156.093 61.3555 155.527 61.3555 154.9ZM67.8755 155.44C68.0221 155.28 68.1421 155.12 68.2355 154.96C68.3288 154.8 68.3755 154.653 68.3755 154.52V153.46C68.0555 153.327 67.7088 153.227 67.3355 153.16C66.9621 153.08 66.6088 153.04 66.2755 153.04C65.5821 153.04 65.0088 153.193 64.5555 153.5C64.1155 153.793 63.8955 154.187 63.8955 154.68C63.8955 154.947 63.9688 155.2 64.1155 155.44C64.2621 155.68 64.4755 155.873 64.7555 156.02C65.0355 156.167 65.3688 156.24 65.7555 156.24C66.1555 156.24 66.5488 156.167 66.9355 156.02C67.3221 155.86 67.6355 155.667 67.8755 155.44ZM73.5598 158V147.52H76.2398V158H73.5598ZM71.8598 145.9V143.52H74.0798V145.9H71.8598ZM75.6998 145.9V143.52H77.9198V145.9H75.6998ZM78.6575 158V147.52H81.3375V151.52H85.5775V147.52H88.2575V158H85.5775V153.76H81.3375V158H78.6575ZM90.7083 158V147.52H93.3883V158H90.7083ZM90.7083 146.06V143.4H93.3883V146.06H90.7083Z" fill="#333333"/>
</svg>
