<svg width="66" height="24" viewBox="0 0 66 24" fill="none" xmlns="http://www.w3.org/2000/svg">
<path d="M7.304 18.59C6.296 18.59 5.444 18.41 4.748 18.05C4.052 17.69 3.5 17.21 3.092 16.61C2.684 15.998 2.384 15.308 2.192 14.54C2.012 13.772 1.922 12.98 1.922 12.164V5.72H3.164V12.164C3.164 12.824 3.23 13.472 3.362 14.108C3.506 14.744 3.734 15.314 4.046 15.818C4.358 16.322 4.778 16.724 5.306 17.024C5.834 17.312 6.494 17.456 7.286 17.456C8.102 17.456 8.774 17.306 9.302 17.006C9.842 16.694 10.262 16.286 10.562 15.782C10.874 15.278 11.096 14.714 11.228 14.09C11.36 13.454 11.426 12.812 11.426 12.164V5.72H12.686V12.164C12.686 13.016 12.59 13.832 12.398 14.612C12.206 15.392 11.894 16.076 11.462 16.664C11.042 17.252 10.49 17.72 9.806 18.068C9.122 18.416 8.288 18.59 7.304 18.59ZM15.6899 18.5V5.738H16.9499V13.154L23.9879 5.72H25.3739L20.1539 11.336L25.6439 18.5H24.2219L19.3439 12.092L16.9499 14.576V18.5H15.6899ZM27.2563 18.5V5.72H32.6563C33.2083 5.72 33.7123 5.834 34.1683 6.062C34.6243 6.29 35.0203 6.602 35.3563 6.998C35.7043 7.382 35.9683 7.814 36.1483 8.294C36.3403 8.762 36.4363 9.242 36.4363 9.734C36.4363 10.346 36.3163 10.922 36.0763 11.462C35.8483 12.002 35.5183 12.458 35.0863 12.83C34.6663 13.202 34.1683 13.448 33.5923 13.568L36.7243 18.5H35.3023L32.2963 13.784H28.5163V18.5H27.2563ZM28.5163 12.668H32.6923C33.1963 12.668 33.6343 12.53 34.0063 12.254C34.3783 11.978 34.6663 11.618 34.8703 11.174C35.0743 10.718 35.1763 10.238 35.1763 9.734C35.1763 9.218 35.0563 8.744 34.8163 8.312C34.5883 7.868 34.2763 7.514 33.8803 7.25C33.4963 6.974 33.0643 6.836 32.5843 6.836H28.5163V12.668Z" fill="#333333"/>
<path d="M46.3 10.2L53.8 17.7L61.3 10.2" stroke="#333333" stroke-width="1.5" stroke-linecap="round" stroke-linejoin="round"/>
</svg>
