<svg width="28" height="29" viewBox="0 0 28 29" fill="none" xmlns="http://www.w3.org/2000/svg">
<path d="M26.4467 24.5702L15.2475 28.8804C14.6876 29.0959 14.1706 28.8663 13.9551 28.3064C13.4163 26.9065 12.4398 26.3179 10.9103 25.4065C10.0989 24.9687 9.12238 24.3802 8.07399 23.605C5.22323 21.4877 2.34361 18.7385 1.50337 17.6689C0.663124 16.5994 0.619839 15.6517 0.813554 15.0414C0.971351 14.3377 1.61021 13.7704 2.45015 13.4471C3.57007 13.0161 5.04917 13.5184 6.54271 14.3365L2.84312 4.72386C2.23251 3.1373 2.97881 1.45712 4.56537 0.846506C6.15192 0.235894 7.83211 0.982203 8.44272 2.56876L9.95129 6.48848C10.1954 6.2874 10.4394 6.08631 10.8127 5.94264C11.8393 5.54754 12.8948 5.78423 13.6487 6.35126C13.9143 5.9276 14.345 5.65468 14.8116 5.47509C16.1182 4.97224 17.4681 5.41708 18.3083 6.48665C18.5524 6.28557 18.8898 6.04857 19.2631 5.90489C20.8496 5.29428 22.5298 6.04059 23.1404 7.62714L24.218 10.4269C25.1519 12.8534 25.4395 14.9929 25.6912 17.039C25.943 19.0851 26.1588 21.0379 27.0208 23.2778C27.2363 23.8377 27.0067 24.3547 26.4467 24.5702ZM15.3691 26.6906L24.7951 23.0629C24.0982 20.9738 23.9183 19.1143 23.6451 17.2908C23.3934 15.2446 23.1776 13.2918 22.3514 11.1453L21.2739 8.34551C21.0584 7.78555 20.5414 7.55592 19.9814 7.77143C19.4215 7.98694 19.1919 8.50392 19.4074 9.06388L19.7665 9.99714C19.9821 10.5571 19.7524 11.0741 19.1925 11.2896C18.6325 11.5051 18.1155 11.2755 17.9 10.7155L16.8225 7.91571C16.607 7.35575 16.09 7.12612 15.53 7.34163C14.9701 7.55714 14.7404 8.07412 14.9559 8.63408L15.6743 10.5006C15.8898 11.0606 15.6602 11.5776 15.1002 11.7931C14.5403 12.0086 14.0233 11.7789 13.8078 11.219L12.7302 8.41918C12.5147 7.85922 11.9977 7.62958 11.4378 7.84509C10.8778 8.0606 10.6482 8.57758 10.8637 9.13754L11.582 11.0041C11.7976 11.564 11.5679 12.081 11.008 12.2965C10.448 12.512 9.93102 12.2824 9.71551 11.7224L6.48286 3.32304C6.26735 2.76308 5.75037 2.53345 5.19041 2.74896C4.63045 2.96447 4.40081 3.48145 4.61632 4.04141L10.0041 18.0404C10.2196 18.6004 9.98995 19.1174 9.42999 19.3329C8.87003 19.5484 8.35305 19.3187 8.13754 18.7588L7.8502 18.0122C6.18413 16.1889 3.72848 15.0982 3.07519 15.3496C2.88854 15.4214 2.70188 15.4933 2.64447 15.6225C2.58707 15.7518 2.69482 16.0317 2.96774 16.4624C3.64282 17.3813 6.19211 19.829 9.20803 22.0971C10.1272 22.8148 10.9386 23.2526 11.7859 23.7837C13.2435 24.5085 14.5719 25.1759 15.3691 26.6906Z" fill="#333333"/>
</svg>
